<svg xmlns="http://www.w3.org/2000/svg" width="80" height="80" viewBox="0 0 80 80">
    <g fill="none" fill-rule="evenodd">
        <g>
            <g>
                <g>
                    <g>
                        <g transform="translate(-1068 -2944) translate(0 2120) translate(936 784) translate(24 40) translate(108)">
                            <circle cx="40" cy="32" r="32" fill="#F6F9F1"/>
                            <g fill="#2C2C2C">
                                <path d="M62.03 3.295c-2.188-1.97-5.488-1.96-7.766-.133L47.42 8.65c-.211.167-.467.256-.744.256h-4.622c.51-1.069.722-2.305.533-3.596C42.142 2.204 39.298 0 36.165 0H20.144c-2.311 0-4.556.746-6.4 2.137L9.477 5.343H.89C.4 5.343 0 5.744 0 6.234v1.781c0 .49.4.89.889.89h9.777l5.211-3.918c1.233-.924 2.733-1.425 4.267-1.425h16.299c1.477 0 2.666 1.191 2.666 2.672 0 1.48-1.189 2.672-2.666 2.672h-9.778c-.977 0-1.777.801-1.777 1.78 0 .98.8 1.782 1.777 1.782h20.022c1.077 0 2.122-.367 2.966-1.035l6.844-5.477c.856-.68 2.222-.846 3.156 0 1.122 1.013 1.033 2.727-.1 3.629l-11.2 8.983c-.844.68-1.889 1.036-2.966 1.036H.889c-.489 0-.889.4-.889.89v1.781c0 .49.4.891.889.891h44.498c1.889 0 3.71-.646 5.177-1.826l11.21-8.983c1.356-1.091 2.167-2.717 2.223-4.453.056-1.737-.667-3.429-1.967-4.609z" transform="translate(8 47.834)"/>
                            </g>
                            <path fill="#1FAA39" fill-rule="nonzero" d="M41.243 16.82c2.61-2.75 7.733-4.264 11.655-.857 3.933 3.406 4.133 9.518.622 13.213l-12.1 12.702c-.788.824-2.055.824-2.833 0L26.488 29.176c-3.51-3.684-3.3-9.807.622-13.213 3.956-3.44 9.1-1.826 11.655.857L40 18.11zm-4.989 2.471c-1.522-1.603-4.566-2.638-6.877-.634-2.633 2.293-2.233 6.089-.378 8.026l11 11.555 10.999-11.555c1.867-1.96 2.267-5.733-.378-8.026-2.322-2.004-5.377-.936-6.877.634l-3.744 3.93z"/>
                        </g>
                    </g>
                </g>
            </g>
        </g>
    </g>
</svg>
