<svg xmlns="http://www.w3.org/2000/svg" width="80" height="80" viewBox="0 0 80 80">
    <g fill="none" fill-rule="evenodd">
        <g>
            <g>
                <g>
                    <g>
                        <g transform="translate(-292 -2944) translate(0 2120) translate(160 784) translate(24 40) translate(108)">
                            <circle cx="48" cy="48" r="32" fill="#F6F9F1"/>
                            <g>
                                <path fill="#2C2C2C" d="M32 22.5c6.19 0 11.2-5.032 11.2-11.25S38.19 0 32 0c-6.19 0-11.2 5.032-11.2 11.25S25.81 22.5 32 22.5zm0-19.286c4.41 0 8 3.606 8 8.036s-3.59 8.036-8 8.036-8-3.606-8-8.036 3.59-8.036 8-8.036zm8.01 21.295c-3.34 0-4.17 1.205-8.01 1.205s-4.67-1.205-8.01-1.205c-3.63 0-7.16 1.627-9.23 4.71-1.24 1.85-1.96 4.069-1.96 6.46v4.5C12.8 42.84 14.95 45 17.6 45h28.8c2.65 0 4.8-2.16 4.8-4.821v-4.5c0-2.391-.72-4.61-1.96-6.46-2.07-3.083-5.6-4.71-9.23-4.71zM48 40.179c0 .883-.72 1.607-1.6 1.607H17.6c-.88 0-1.6-.724-1.6-1.607v-4.5c0-1.668.49-3.285 1.41-4.661 1.38-2.06 3.84-3.295 6.57-3.295 2.74 0 3.72 1.206 8.02 1.206 4.3 0 5.28-1.206 8.01-1.206 2.73 0 5.19 1.236 6.57 3.295.92 1.376 1.41 2.993 1.41 4.66v4.5H48z" transform="translate(8 16)"/>
                                <path fill="#1FAA39" fill-rule="nonzero" d="M56.4 22.5c4.19 0 7.6 3.606 7.6 8.036 0 .884-.72 1.607-1.6 1.607-.88 0-1.6-.723-1.6-1.607 0-2.662-1.98-4.822-4.4-4.822h-4c-.55 0-1.08.12-1.57.332-.75-.854-1.6-1.607-2.54-2.25 1.18-.814 2.59-1.296 4.11-1.296zm-44.8 0c1.51 0 2.92.482 4.11 1.296-.93.643-1.79 1.396-2.54 2.25-.49-.211-1.02-.332-1.57-.332h-4c-2.42 0-4.4 2.16-4.4 4.822 0 .884-.72 1.607-1.6 1.607-.88 0-1.6-.723-1.6-1.607 0-4.43 3.41-8.036 7.6-8.036zM54.4 3.214c4.42 0 8 3.596 8 8.036 0 4.44-3.58 8.036-8 8.036s-8-3.596-8-8.036c0-4.44 3.58-8.036 8-8.036zm-44.8 0c4.42 0 8 3.596 8 8.036 0 4.44-3.58 8.036-8 8.036s-8-3.596-8-8.036c0-4.44 3.58-8.036 8-8.036zM54.4 6.43c-2.65 0-4.8 2.16-4.8 4.821 0 2.662 2.15 4.821 4.8 4.821s4.8-2.16 4.8-4.821c0-2.662-2.15-4.821-4.8-4.821zm-44.8 0c-2.65 0-4.8 2.16-4.8 4.821 0 2.662 2.15 4.821 4.8 4.821s4.8-2.16 4.8-4.821c0-2.662-2.15-4.821-4.8-4.821z" transform="translate(8 16)"/>
                            </g>
                        </g>
                    </g>
                </g>
            </g>
        </g>
    </g>
</svg>
