<svg xmlns="http://www.w3.org/2000/svg" width="80" height="80" viewBox="0 0 80 80">
    <g fill="none" fill-rule="evenodd">
        <g>
            <g>
                <g>
                    <g>
                        <g transform="translate(-1068 -2348) translate(0 2120) translate(936 188) translate(24 40) translate(108)">
                            <circle cx="48" cy="32" r="32" fill="#F6F9F1"/>
                            <path fill="#2C2C2C" d="M40 48c8.837 0 16-7.163 16-16s-7.163-16-16-16-16 7.163-16 16 7.163 16 16 16zm0-28c6.612 0 12 5.387 12 12 0 6.612-5.388 12-12 12s-12-5.388-12-12c0-6.613 5.388-12 12-12zm11.487 34.025L46.525 71.25l-4.237-12.712 3.125-3.125C46.675 54.15 45.775 52 44 52h-8c-1.788 0-2.675 2.15-1.413 3.413l3.125 3.125-4.237 12.712-4.963-17.212C19.362 54.188 12 61.624 12 70.8V74c0 3.313 2.688 6 6 6h44c3.313 0 6-2.688 6-6v-3.2c0-9.175-7.362-16.612-16.513-16.775zM18 76c-1.1 0-2-.9-2-2v-3.2c0-5.9 4.1-10.938 9.613-12.362L30.688 76H18zm18.112 0L40 64.325 43.888 76h-7.776zM64 74c0 1.1-.9 2-2 2H49.312l5.063-17.563c5.513 1.425 9.612 6.463 9.612 12.363V74H64z"/>
                            <path fill="#1FAA39" d="M49.313 76l-7.026-17.462 3.126-3.125C46.675 54.15 45.775 52 44 52h-8c-1.788 0-2.675 2.15-1.413 3.413l3.125 3.125L30.688 76h18.625zM40 64.325L43.888 76h-7.776L40 64.325z"/>
                        </g>
                    </g>
                </g>
            </g>
        </g>
    </g>
</svg>
