<svg xmlns="http://www.w3.org/2000/svg" width="80" height="80" viewBox="0 0 80 80">
    <g fill="none" fill-rule="evenodd">
        <g>
            <g>
                <g>
                    <g>
                        <g transform="translate(-680 -2348) translate(0 2120) translate(548 188) translate(24 40) translate(108)">
                            <circle cx="40" cy="32" r="32" fill="#F6F9F1"/>
                            <g>
                                <path fill="#2C2C2C" d="M45.068 23.52c-2.183-3.562-6.786-4.633-10.267-2.462-1.996-2.604-5.334-3.535-8.265-2.548V7.53C26.536 3.38 23.187 0 19.072 0c-4.116 0-7.465 3.378-7.465 7.531V30.27c-2.542-1.71-5.947-1.736-8.548.184-3.32 2.45-4.046 7.135-1.642 10.49l14.284 19.938C17.1 62.834 19.36 64 21.75 64h23.214c3.465 0 6.48-2.412 7.268-5.816l3.572-15.406c.13-.563.196-1.138.196-1.716V30.187c0-5.67-6.001-9.289-10.932-6.668zM10.262 34.449l3.532 4.93c0 .432.278.815.69.95.41.134.86-.011 1.116-.36.256-.348.259-.822.007-1.173V7.531c0-4.668 6.929-4.676 6.929 0v22.657c0 .552.447 1 1 1h.893c.552 0 1-.448 1-1v-4.532c0-4.668 6.928-4.676 6.928 0v4.532c0 .552.448 1 1 1h.893c.552 0 1-.448 1-1v-2.72c0-4.668 6.929-4.675 6.929 0v2.72c0 .552.447 1 1 1h.893c.552 0 1-.448 1-1 0-4.67 6.928-4.677 6.928 0v10.875c0 .273-.031.546-.093.811l-3.571 15.407C47.965 58.88 46.578 60 44.964 60H21.75c-1.102 0-2.148-.541-2.798-1.449L4.667 38.614c-2.777-3.875 2.975-7.822 5.595-4.165z" transform="translate(13 16)"/>
                                <path fill="#1FAA39" fill-rule="nonzero" d="M22.536 50.125V39.25c0-.552.447-1 1-1h.893c.552 0 1 .448 1 1v10.875c0 .552-.448 1-1 1h-.893c-.553 0-1-.448-1-1zM32.357 50.125V39.25c0-.552.448-1 1-1h.893c.552 0 1 .448 1 1v10.875c0 .552-.448 1-1 1h-.893c-.552 0-1-.448-1-1zM42.179 50.125V39.25c0-.552.447-1 1-1h.893c.552 0 1 .448 1 1v10.875c0 .552-.448 1-1 1h-.893c-.553 0-1-.448-1-1z" transform="translate(13 16)"/>
                            </g>
                        </g>
                    </g>
                </g>
            </g>
        </g>
    </g>
</svg>
