<svg xmlns="http://www.w3.org/2000/svg" width="80" height="80" viewBox="0 0 80 80">
    <g fill="none" fill-rule="evenodd">
        <g>
            <g>
                <g>
                    <g>
                        <g transform="translate(-292 -2348) translate(0 2120) translate(160 188) translate(24 40) translate(108)">
                            <circle cx="32" cy="32" r="32" fill="#F6F9F1"/>
                            <g>
                                <path fill="#2C2C2C" d="M56 61.5V64H0v-2.5c0-.828.672-1.5 1.5-1.5H4V3c0-1.657 1.343-3 3-3h42c1.657 0 3 1.343 3 3v57h2.5c.828 0 1.5.672 1.5 1.5zM48 60V4H8v56h16V49.375c0-.828.672-1.5 1.5-1.5h5c.828 0 1.5.672 1.5 1.5V60h16z" transform="translate(12 16)"/>
                                <path fill="#1FAA39" fill-rule="nonzero" d="M24 13.375v5c0 .828-.672 1.5-1.5 1.5h-5c-.828 0-1.5-.672-1.5-1.5v-5c0-.828.672-1.5 1.5-1.5h5c.828 0 1.5.672 1.5 1.5zM38.5 11.875h-5c-.828 0-1.5.672-1.5 1.5v5c0 .828.672 1.5 1.5 1.5h5c.828 0 1.5-.672 1.5-1.5v-5c0-.828-.672-1.5-1.5-1.5zM22.5 23.875h-5c-.828 0-1.5.672-1.5 1.5v5c0 .828.672 1.5 1.5 1.5h5c.828 0 1.5-.672 1.5-1.5v-5c0-.828-.672-1.5-1.5-1.5zM38.5 23.875h-5c-.828 0-1.5.672-1.5 1.5v5c0 .828.672 1.5 1.5 1.5h5c.828 0 1.5-.672 1.5-1.5v-5c0-.828-.672-1.5-1.5-1.5zM22.5 35.875h-5c-.828 0-1.5.672-1.5 1.5v5c0 .828.672 1.5 1.5 1.5h5c.828 0 1.5-.672 1.5-1.5v-5c0-.828-.672-1.5-1.5-1.5zM38.5 35.875h-5c-.828 0-1.5.672-1.5 1.5v5c0 .828.672 1.5 1.5 1.5h5c.828 0 1.5-.672 1.5-1.5v-5c0-.828-.672-1.5-1.5-1.5z" transform="translate(12 16)"/>
                            </g>
                        </g>
                    </g>
                </g>
            </g>
        </g>
    </g>
</svg>
