<svg xmlns="http://www.w3.org/2000/svg" width="80" height="80" viewBox="0 0 80 80">
    <g fill="none" fill-rule="evenodd">
        <g>
            <g>
                <g>
                    <g>
                        <g transform="translate(-874 -2646) translate(0 2120) translate(742 486) translate(24 40) translate(108)">
                            <circle cx="32" cy="47" r="32" fill="#F6F9F1"/>
                            <g>
                                <path fill="#2C2C2C" d="M48.304 0H11.7c-.438 0-.844.232-1.073.612L.18 17.782c-.28.464-.229 1.065.125 1.477l28.75 34.298c.5.59 1.395.59 1.895 0L59.7 19.259c.354-.412.396-1.013.125-1.477L49.376.612C49.147.232 48.741 0 48.304 0zm-1.417 3.797l7.74 13.078H45.98L40.064 3.797h6.823zm-10.948 0l5.917 13.078H18.138l5.927-13.078h11.874zm-22.822 0h6.823l-5.916 13.078H5.378l7.74-13.078zM6.378 20.25h7.604l8.52 20.25L6.378 20.25zm11.666 0H41.95L30.002 48.073 18.044 20.25zM37.502 40.5l8.52-20.25h7.604L37.502 40.5z" transform="translate(12 12)"/>
                                <path fill="#1FAA39" fill-rule="nonzero" d="M46.887 3.797h-33.77L5.378 16.875l1 3.375L22.502 40.5l7.5 7.573 7.5-7.573 16.124-20.25 1-3.375-7.739-13.078zm7.74 13.078H45.98L40.064 3.797h6.823l7.74 13.078zM35.938 3.797l5.917 13.078H18.138l5.927-13.078h11.874zm-15.999 0l-5.916 13.078H5.378l7.74-13.078h6.822zM6.378 20.25h7.604l8.52 20.25L6.378 20.25zm11.666 0H41.95L30.002 48.073 18.044 20.25zM37.502 40.5l8.52-20.25h7.604L37.502 40.5z" transform="translate(12 12)"/>
                            </g>
                        </g>
                    </g>
                </g>
            </g>
        </g>
    </g>
</svg>
