<svg xmlns="http://www.w3.org/2000/svg" width="80" height="80" viewBox="0 0 80 80">
    <g fill="none" fill-rule="evenodd">
        <g>
            <g>
                <g>
                    <g>
                        <g transform="translate(-486 -2646) translate(0 2120) translate(354 486) translate(24 40) translate(108)">
                            <circle cx="44" cy="36" r="32" fill="#F6F9F1"/>
                            <path fill="#2C2C2C" d="M67 72H8V29c0-.552-.447-1-1-1H5c-.553 0-1 .448-1 1v45c0 1.105.895 2 2 2h61c.552 0 1-.448 1-1v-2c0-.552-.448-1-1-1z"/>
                            <path fill="#1FAA39" fill-rule="nonzero" d="M55.489 31.456c1.117 0 2.024.906 2.024 2.023v14.934c0 1.83-1.498 3.043-3.058 3.043-.746 0-1.506-.277-2.125-.895l-5.505-5.505-22.777 22.776c-.39.39-1.024.39-1.414 0l-1.413-1.413c-.39-.39-.39-1.024 0-1.414l22.777-22.778-5.59-5.589c-1.912-1.912-.558-5.182 2.147-5.182zm-1.976 4h-10.63l10.63 10.63v-10.63z" transform="rotate(30 39.22 49.79)"/>
                        </g>
                    </g>
                </g>
            </g>
        </g>
    </g>
</svg>
