<svg xmlns="http://www.w3.org/2000/svg" width="80" height="80" viewBox="0 0 80 80">
    <g fill="none" fill-rule="evenodd">
        <g>
            <g>
                <g>
                    <g>
                        <g transform="translate(-874 -3242) translate(0 2120) translate(742 1082) translate(24 40) translate(108)">
                            <circle cx="32" cy="32" r="32" fill="#F6F9F1"/>
                            <path fill="#2C2C2C" d="M19.6 27.188H58v6.375h3.2v-6.376C61.2 25.427 59.767 24 58 24H19.6c-1.767 0-3.2 1.427-3.2 3.188v25.5h-4.8c-.884 0-1.6.713-1.6 1.593v1.594c.008 3.514 2.863 6.362 6.391 6.375H45.2v-3.188H16.391c-1.764-.004-3.191-1.43-3.191-3.187h32v-3.188H19.6v-25.5z"/>
                            <path fill="#1FAA39" fill-rule="nonzero" d="M70.8 36.75c1.767 0 3.2 1.427 3.2 3.188v31.874C74 73.573 72.567 75 70.8 75H51.6c-1.767 0-3.2-1.427-3.2-3.188V39.939c0-1.76 1.433-3.188 3.2-3.188zm0 3.188H51.6v31.874h19.2V39.939z"/>
                        </g>
                    </g>
                </g>
            </g>
        </g>
    </g>
</svg>
