<svg xmlns="http://www.w3.org/2000/svg" width="80" height="80" viewBox="0 0 80 80">
    <g fill="none" fill-rule="evenodd">
        <g>
            <g>
                <g>
                    <g>
                        <g transform="translate(-486 -3226) translate(0 2120) translate(354 1082) translate(24 24) translate(108)">
                            <circle cx="48" cy="32" r="32" fill="#F6F9F1"/>
                            <g fill="#2C2C2C">
                                <path d="M45.538 15.415l-13.115-1.912-5.864-11.904C26.079.615 25.079-.007 23.984 0 22.891-.013 21.89.612 21.421 1.6l-5.864 11.904-13.103 1.912c-2.348.336-3.286 3.248-1.586 4.909l9.49 9.257-2.25 13.077c-.148.835.082 1.693.627 2.343.544.65 1.348 1.027 2.197 1.03.466 0 .925-.116 1.336-.336l11.728-6.172 11.728 6.172c.409.214.862.33 1.324.335.847-.003 1.65-.378 2.195-1.025.546-.647.78-1.5.642-2.336l-2.24-13.076 9.49-9.257c1.7-1.673.75-4.571-1.597-4.92zm-12.19 12.776l2.2 12.894-11.564-6.098-11.564 6.098 2.2-12.894-9.338-9.142 12.924-1.885 5.79-11.73 5.774 11.73 12.927 1.885-9.348 9.142z" transform="translate(6 27.97)"/>
                            </g>
                            <path fill="#1FAA39" fill-rule="nonzero" d="M62.001 29.971c.253 0 .484.144.597.37l2.07 4.968 4.964 2.07c.225.114.368.345.368.598 0 .252-.143.483-.368.596l-4.965 2.072-2.07 4.967c-.112.226-.343.37-.596.37-.253 0-.484-.144-.596-.37l-2.07-4.967-4.964-2.072c-.226-.113-.368-.344-.368-.596 0-.253.142-.484.368-.597l4.964-2.071 2.07-4.968c.112-.226.343-.37.596-.37zM49.714 10.886l.075.136 3.035 6.105 6.074 3.04c.676.34 1.102 1.031 1.102 1.788 0 .702-.367 1.348-.96 1.71l-.142.078-6.074 3.039-3.035 6.08c-.334.683-1.029 1.115-1.789 1.112-.704-.003-1.351-.374-1.711-.97l-.078-.142-3.035-6.08-6.074-3.04c-.675-.353-1.099-1.051-1.102-1.813 0-.702.368-1.348.96-1.71l.142-.078 6.074-3.04 3.035-6.08c.652-1.315 2.75-1.36 3.503-.135zM48 16.4l-1.54 3.09c-.166.334-.421.614-.735.81l-.162.091-3.086 1.552 3.086 1.55c.33.171.608.427.806.74l.092.16L48 27.484l1.54-3.09c.166-.333.421-.613.736-.81l.162-.09 3.085-1.55-3.085-1.552c-.332-.17-.61-.426-.807-.74l-.092-.161L48 16.4z"/>
                        </g>
                    </g>
                </g>
            </g>
        </g>
    </g>
</svg>
