<svg xmlns="http://www.w3.org/2000/svg" width="64" height="64" viewBox="0 0 64 64">
    <g fill="none" fill-rule="evenodd">
        <g>
            <g transform="translate(-1312 -4080) translate(1312 4080)">
                <circle cx="32" cy="32" r="31" stroke="#1FAA39" stroke-width="2"/>
                <g fill="#1FAA39" fill-rule="nonzero">
                    <path d="M15.838 4.683l-1.052 1.024c-.254.248-.25.651.01.894l4.326 4.043H.643c-.355 0-.643.28-.643.626v1.46c0 .346.288.626.643.626h18.479L14.796 17.4c-.26.243-.264.646-.01.894l1.052 1.024c.251.244.659.244.91 0l7.064-6.874c.25-.245.25-.641 0-.886l-7.064-6.874c-.251-.244-.659-.244-.91 0z" transform="translate(20 20)"/>
                </g>
            </g>
        </g>
    </g>
</svg>
