<svg xmlns="http://www.w3.org/2000/svg" width="80" height="80" viewBox="0 0 80 80">
    <g fill="none" fill-rule="evenodd">
        <g>
            <g>
                <g>
                    <g>
                        <g transform="translate(-680 -2944) translate(0 2120) translate(548 784) translate(24 40) translate(108)">
                            <circle cx="33" cy="32" r="32" fill="#F6F9F1"/>
                            <g fill="#000" fill-rule="nonzero">
                                <path d="M52.558 9.807L30.158.43c-1.378-.575-2.927-.575-4.305 0l-22.4 9.376C1.365 10.674 0 12.725 0 14.999c0 23.264 13.358 39.343 25.842 44.57 1.376.575 2.928.575 4.305 0C40.145 55.385 56 40.935 56 15c0-2.274-1.365-4.325-3.442-5.192zM28.723 56.112c-.466.187-.98.187-1.435 0C15.867 51.565 3.733 35.626 3.733 14.999c0-.762.455-1.442 1.144-1.735l22.4-9.376c.455-.187.98-.187 1.435 0l22.4 9.376c.7.293 1.155.973 1.143 1.735.012 20.627-12.122 36.566-23.532 41.113z" transform="translate(18 14)"/>
                            </g>
                            <path fill="#1FAA39" fill-rule="nonzero" d="M46 24.498v38.879c-8.2-4.563-16.575-16.427-17.837-31.44L46 24.497zm-4 6l-9.513 3.964C33.775 42.8 37.45 50.038 42 55.026V30.5z"/>
                        </g>
                    </g>
                </g>
            </g>
        </g>
    </g>
</svg>
