<svg xmlns="http://www.w3.org/2000/svg" width="88" height="88" viewBox="0 0 88 88">
    <g fill="none" fill-rule="evenodd">
        <g>
            <g transform="translate(-1088 -2740) translate(1088 2740)">
                <circle cx="40" cy="40" r="40" fill="#F6F9F1"/>
                <circle cx="48" cy="48" r="40" stroke="#1FAA39" stroke-width=".5"/>
                <g>
                    <path fill="#2C2C2C" d="M42.947 15.853l-1.721-1.723c-1.405-1.408-3.681-1.409-5.088 0l-5.47 5.461v-4.015c0-.883-.355-1.738-.98-2.363L23.863 7.38c-.625-.625-1.472-.98-2.354-.98H7.333C5.493 6.407 4 7.902 4 9.744v28.92C4 40.504 5.493 42 7.333 42h20.001c1.84 0 3.333-1.495 3.333-3.337v-5.6c.437-.325.877-.65 1.263-1.04l11.017-11.076c.68-.68 1.053-1.584 1.053-2.547 0-.962-.374-1.866-1.053-2.547zM21.78 8.666c.195.049.368.146.514.292l5.825 5.832c.146.146.243.32.292.515h-6.63V8.666zm6.666 29.997c0 .612-.5 1.113-1.112 1.113H7.333c-.611 0-1.111-.5-1.111-1.113V9.743c0-.611.5-1.118 1.11-1.118h12.226v7.236c0 .925.743 1.664 1.667 1.664h7.22v4.278l-3.368 3.354c-2.093 2.084-3.293 4.973-3.297 7.927-.273-.02-.519-.168-.65-.436-.831-1.659-3.212-2.11-4.583-.985l-.964-2.894c-.228-.682-.864-1.141-1.582-1.141-.718 0-1.354.458-1.582 1.14l-1.266 3.8c-.104.32-.401.532-.736.532h-.861c-.614 0-1.111.498-1.111 1.112 0 .615.497 1.113 1.11 1.113h.862c1.294 0 2.437-.826 2.846-2.053L14 31.054l1.168 3.51c.315.94 1.607 1.031 2.048.145l.532-1.066c.279-.561 1.097-.597 1.404.024.504 1.005 1.508 1.637 2.626 1.658H24c1.532 0 3.052-.34 4.446-.946v4.284zm1.908-8.208C28.672 32.148 26.385 33.1 24 33.1v-.002c0-2.388.952-4.679 2.643-6.363l8.372-8.335 3.667 3.672-8.328 8.383zm11.022-11.08l-1.472 1.473-3.667-3.671 1.473-1.474c.536-.537 1.407-.538 1.945 0l1.721 1.724c.536.537.536 1.41 0 1.948z" transform="translate(20 20)"/>
                    <path fill="#1FAA39" d="M21.78 33.084c-.346-.112-.562-.257-.65-.436-.831-1.659-3.212-2.11-4.583-.985l-.964-2.894c-.228-.682-.864-1.141-1.582-1.141-.718 0-1.354.458-1.582 1.14l-1.266 3.8c-.104.32-.401.532-.736.532h-.861c-.614 0-1.111.498-1.111 1.112 0 .615.497 1.113 1.11 1.113h.862c1.294 0 2.437-.826 2.846-2.053L14 31.054l1.168 3.51c.315.94 1.607 1.031 2.048.145l.532-1.066c.279-.561 1.097-.597 1.404.024.504 1.005 1.508 1.637 2.626 1.658l.002-2.241z" transform="translate(20 20)"/>
                </g>
            </g>
        </g>
    </g>
</svg>
