<svg xmlns="http://www.w3.org/2000/svg" width="16" height="16" viewBox="0 0 16 16">
    <g fill="none" fill-rule="evenodd">
        <g fill="#1FAA39" fill-rule="nonzero">
            <g>
                <g>
                    <path d="M14.241 10.023l-2.778-1.19c-.512-.218-1.106-.072-1.46.358l-.894 1.094c-1.434-.782-2.613-1.96-3.396-3.394l1.094-.894c.43-.354.576-.949.358-1.461L5.976 1.76c-.236-.558-.84-.864-1.43-.728l-2.575.594c-.57.13-.973.636-.971 1.22C1 9.579 6.46 15.003 13.156 15c.583.002 1.09-.402 1.219-.971l.593-2.576c.135-.59-.17-1.192-.727-1.43zm-1.137 3.667C7.154 13.663 2.34 8.848 2.312 2.895l2.48-.571 1.151 2.685-1.862 1.524C5.35 9.24 6.766 10.65 9.468 11.919l1.523-1.862 2.685 1.151-.572 2.482z" transform="translate(-144 -4865) translate(112 4780) translate(32 85)"/>
                </g>
            </g>
        </g>
    </g>
</svg>
