<svg xmlns="http://www.w3.org/2000/svg" width="24" height="24" viewBox="0 0 24 24">
    <g fill="none" fill-rule="evenodd">
        <g fill="#FFF" fill-rule="nonzero">
            <g>
                <g>
                    <path d="M15.838 4.683l-1.052 1.024c-.254.248-.25.651.01.894l4.326 4.043H.643c-.355 0-.643.28-.643.626v1.46c0 .346.288.626.643.626h18.479L14.796 17.4c-.26.243-.264.646-.01.894l1.052 1.024c.251.244.659.244.91 0l7.064-6.874c.25-.245.25-.641 0-.886l-7.064-6.874c-.251-.244-.659-.244-.91 0z" transform="translate(-52 -288) translate(32 268) translate(20 20) matrix(-1 0 0 1 24 0)"/>
                </g>
            </g>
        </g>
    </g>
</svg>
