<svg xmlns="http://www.w3.org/2000/svg" width="28" height="28" viewBox="0 0 28 28">
    <g fill="none" fill-rule="evenodd">
        <g fill="#2C2C2C">
            <g>
                <g>
                    <g>
                        <path d="M21.45 9.25h-.55c-.304 0-.55.243-.55.542v.434c-.756-.601-1.703-.976-2.75-.976-2.43 0-4.4 1.94-4.4 4.333v1.084C13.2 17.06 15.17 19 17.6 19c1.047 0 1.994-.375 2.75-.976v.434c0 .3.246.542.55.542h.55c.304 0 .55-.243.55-.542V9.792c0-.3-.246-.542-.55-.542zm-1.1 5.417c0 1.495-1.231 2.708-2.75 2.708-1.518 0-2.75-1.213-2.75-2.708v-1.084c0-1.495 1.232-2.708 2.75-2.708 1.519 0 2.75 1.213 2.75 2.708v1.084zM7.305 6.35C7.225 6.14 7.02 6 6.79 6H5.31c-.228 0-.434.14-.515.35L.035 18.267c-.063.167-.04.353.063.5C.2 18.913.37 19 .55 19h.59c.228 0 .434-.14.515-.35l1.377-3.442h6.035l1.379 3.442c.08.21.286.35.515.35h.589c.18 0 .35-.087.453-.233.103-.147.126-.333.062-.5L7.306 6.35zm-3.62 7.233L6.05 7.678l2.366 5.905H3.685zM26.5 2.75h-2.25V.5c0-.276-.224-.5-.5-.5h-.5c-.276 0-.5.224-.5.5v2.25H20.5c-.276 0-.5.224-.5.5v.5c0 .276.224.5.5.5h2.25V6.5c0 .276.224.5.5.5h.5c.276 0 .5-.224.5-.5V4.25h2.25c.276 0 .5-.224.5-.5v-.5c0-.276-.224-.5-.5-.5z" transform="translate(-1314 -402) translate(1304 268) translate(10 134) translate(1 4)"/>
                    </g>
                </g>
            </g>
        </g>
    </g>
</svg>
