<svg xmlns="http://www.w3.org/2000/svg" width="24" height="24" viewBox="0 0 24 24">
    <g fill="none" fill-rule="evenodd">
        <g fill="#00BF00" fill-rule="nonzero">
            <g>
                <g>
                    <g>
                        <path d="M12.147 7.688v3.174c0 .08-.062.142-.143.142h-.508c-.05 0-.094-.026-.117-.058L9.924 8.982v1.884c0 .08-.062.143-.143.143h-.509c-.08 0-.143-.063-.143-.143V7.692c0-.08.063-.143.143-.143h.505c.044 0 .094.022.116.063l1.455 1.964V7.692c0-.08.063-.143.143-.143H12c.08-.004.147.063.147.138zm-3.66-.143h-.51c-.08 0-.142.062-.142.143v3.174c0 .08.062.142.143.142h.509c.08 0 .142-.062.142-.142V7.687c0-.075-.062-.142-.142-.142zm-1.228 2.66H5.87V7.687c0-.08-.063-.142-.143-.142h-.51c-.08 0-.142.062-.142.143v3.174c0 .04.013.071.04.098.027.022.058.04.098.04h2.04c.08 0 .143-.063.143-.143v-.509c0-.076-.062-.143-.138-.143zm7.567-2.66h-2.04c-.076 0-.143.062-.143.143v3.174c0 .075.062.142.143.142h2.04c.08 0 .143-.062.143-.142v-.51c0-.08-.063-.142-.143-.142h-1.389v-.536h1.389c.08 0 .143-.062.143-.143v-.513c0-.08-.063-.143-.143-.143h-1.389v-.536h1.389c.08 0 .143-.062.143-.143v-.508c-.005-.076-.067-.143-.143-.143zM20 3.647v12.737c-.004 2-1.643 3.62-3.647 3.616H3.616c-2-.004-3.62-1.647-3.616-3.647V3.616c.004-2 1.647-3.62 3.647-3.616h12.737c2 .004 3.62 1.643 3.616 3.647zm-2.75 5.474c0-3.26-3.268-5.911-7.281-5.911-4.014 0-7.281 2.652-7.281 5.91 0 2.92 2.589 5.367 6.089 5.83.852.184.754.496.562 1.644-.031.183-.147.718.63.393.777-.326 4.192-2.47 5.723-4.228 1.054-1.16 1.558-2.335 1.558-3.638z" transform="translate(-1316 -364) translate(1304 268) translate(12 96) translate(2 2)"/>
                    </g>
                </g>
            </g>
        </g>
    </g>
</svg>
