<svg xmlns="http://www.w3.org/2000/svg" width="88" height="88" viewBox="0 0 88 88">
    <g fill="none" fill-rule="evenodd">
        <g>
            <g transform="translate(-1088 -3000) translate(1088 3000)">
                <circle cx="40" cy="40" r="40" fill="#F6F9F1"/>
                <circle cx="48" cy="48" r="40" stroke="#1FAA39" stroke-width=".5"/>
                <g>
                    <path fill="#2C2C2C" d="M24 24c5.555 0 10.057-4.477 10.057-10S29.555 4 24 4c-5.555 0-10.057 4.477-10.057 10S18.445 24 24 24zm0-17.5c4.156 0 7.543 3.367 7.543 7.5S28.156 21.5 24 21.5c-4.156 0-7.543-3.367-7.543-7.5S19.844 6.5 24 6.5zm7.22 21.266L28.102 38.53l-2.663-7.945 1.964-1.953c.794-.79.228-2.133-.888-2.133h-5.028c-1.124 0-1.682 1.344-.888 2.133l1.964 1.953L19.9 38.53l-3.12-10.758C11.028 27.867 6.4 32.516 6.4 38.25v2c0 2.07 1.69 3.75 3.771 3.75H37.83c2.082 0 3.771-1.68 3.771-3.75v-2c0-5.734-4.628-10.383-10.38-10.484zM10.172 41.5c-.691 0-1.257-.563-1.257-1.25v-2c0-3.688 2.577-6.836 6.042-7.727l3.19 10.977h-7.975zm11.385 0L24 34.203l2.444 7.297h-4.888zm17.53-1.25c0 .688-.566 1.25-1.257 1.25h-7.975l3.182-10.977c3.465.891 6.042 4.04 6.042 7.727v2h.008z" transform="translate(20 20)"/>
                    <path fill="#1FAA39" d="M26.514 26.5c1.116 0 1.682 1.344.888 2.133l-1.964 1.953L28.1 38.53l1.165 2.969h-2.822L24 34.203 21.556 41.5H18.74l1.16-2.969 2.663-7.945-1.964-1.953c-.794-.79-.236-2.133.888-2.133z" transform="translate(20 20)"/>
                </g>
            </g>
        </g>
    </g>
</svg>
