<svg xmlns="http://www.w3.org/2000/svg" width="16" height="16" viewBox="0 0 16 16">
    <g fill="none" fill-rule="evenodd">
        <g fill="#1FAA39" fill-rule="nonzero">
            <g>
                <g>
                    <path d="M8 1C4.96 1 2.5 3.352 2.5 6.25c0 1.945.687 2.552 4.333 8.133.538.823 1.796.822 2.334 0C12.815 8.799 13.5 8.194 13.5 6.25 13.5 3.349 11.036 1 8 1zm0 12.688C4.35 8.1 3.875 7.748 3.875 6.25c0-2.175 1.847-3.937 4.125-3.937s4.125 1.762 4.125 3.937c0 1.492-.434 1.789-4.125 7.438zM5.708 6.25c0-1.208 1.026-2.187 2.292-2.187 1.266 0 2.292.979 2.292 2.187 0 1.208-1.026 2.188-2.292 2.188-1.266 0-2.292-.98-2.292-2.188z" transform="translate(-144 -4901) translate(112 4780) translate(32 121)"/>
                </g>
            </g>
        </g>
    </g>
</svg>
