<svg xmlns="http://www.w3.org/2000/svg" width="80" height="80" viewBox="0 0 80 80">
    <g fill="none" fill-rule="evenodd">
        <g>
            <g>
                <g>
                    <g fill="#F6F9F1" transform="translate(-992 -1052) translate(880 964) translate(112 88)">
                        <circle cx="32" cy="32" r="32"/>
                    </g>
                    <g>
                        <path fill="#2C2C2C" d="M62.082 35.71C63.322 34.101 64 32 64 29.433c0-4.709-4.01-9.07-9.09-9.07h-8.77c1.09-2.172 2.587-4.865 2.587-8.728C48.727 4.334 45.815 0 38.364 0c-3.75 0-5.141 4.74-5.854 8.403-.426 2.19-.828 4.257-2.065 5.494C27.498 16.844 23 24 20.297 25.453c-.274.115-.623.206-1.004.278C18.572 24.685 17.366 24 16 24H4c-2.21 0-4 1.79-4 4v32c0 2.21 1.79 4 4 4h12c2.21 0 4-1.79 4-4v-1.093c4.062 0 12.586 5.094 22.182 5.091.688 0 4.706.004 5.127 0C54.719 64 58.84 59.512 58.6 52.774c1.891-2.216 2.818-5.417 2.279-8.388 1.556-2.44 1.89-5.884 1.203-8.676zM4 60V28h12v32H4zm53.002-25.456C59 36 59 42 56.302 43.377c1.69 2.845.168 6.652-1.878 7.75 1.037 6.567-2.37 8.825-7.151 8.871-.414.004-4.656 0-5.091 0-9.116 0-16.843-5.09-22.182-5.09V29.452c4.714 0 9.038-8.492 13.273-12.727 3.818-3.818 2.545-10.182 5.09-12.727 6.364 0 6.364 4.44 6.364 7.636 0 5.274-3.818 7.636-3.818 12.727h14c2.842 0 5.079 2.546 5.091 5.091.013 2.545-1 4.547-2.998 5.091zM13 54c0 1.657-1.343 3-3 3s-3-1.343-3-3 1.343-3 3-3 3 1.343 3 3z" transform="translate(-992 -1052) translate(880 964) translate(112 88) translate(16 16)"/>
                        <path fill="#1FAA39" d="M16 24H4c-2.21 0-4 1.79-4 4v32c0 2.21 1.79 4 4 4h12c2.21 0 4-1.79 4-4V28c-.01-2.208-2.634-4-4-4zM4 60V28h12v32H4zm9-6c0 1.657-1.343 3-3 3s-3-1.343-3-3 1.343-3 3-3 3 1.343 3 3z" transform="translate(-992 -1052) translate(880 964) translate(112 88) translate(16 16)"/>
                    </g>
                    <path fill="#1FAA39" fill-rule="nonzero" d="M73.106 10.51c.34-.68 1.449-.68 1.788 0l1.517 3.047 3.033 1.523c.34.17.556.517.556.898s-.215.729-.556.898L76.411 18.4l-1.517 3.047c-.17.34-.515.554-.894.554s-.725-.214-.894-.554l-1.517-3.047-3.033-1.523c-.34-.169-.556-.517-.556-.898 0-.38.215-.729.556-.898l3.033-1.523zM74 13.204l-.77 1.55c-.098.194-.255.351-.448.449l-1.544.775 1.544.775c.193.098.35.256.447.45l.771 1.55.77-1.55c.098-.194.255-.352.448-.45l1.544-.775-1.544-.775c-.193-.098-.35-.255-.447-.45L74 13.205zM25.106 19.51c.34-.68 1.449-.68 1.788 0l1.517 3.046 3.034 1.524c.34.17.555.517.555.898 0 .38-.215.728-.555.898l-3.034 1.523-1.517 3.047c-.17.34-.515.554-.894.554s-.725-.214-.894-.554l-1.517-3.047-3.034-1.523c-.34-.17-.555-.517-.555-.898 0-.38.215-.729.555-.898l3.034-1.524zM26 22.204l-.77 1.547c-.098.194-.255.351-.448.449l-1.545.778 1.545.778c.193.098.35.255.447.449L26 27.752l.77-1.55c.098-.194.255-.35.448-.448l1.545-.779-1.545-.775c-.193-.097-.35-.253-.447-.446L26 22.204z" transform="translate(-992 -1052) translate(880 964) translate(112 88)"/>
                </g>
            </g>
        </g>
    </g>
</svg>
