<svg xmlns="http://www.w3.org/2000/svg" width="16" height="16" viewBox="0 0 16 16">
    <g fill="none" fill-rule="evenodd">
        <g fill="#1FAA39" fill-rule="nonzero">
            <g>
                <g>
                    <g>
                        <g>
                            <g>
                                <path d="M8 8.875c2.13 0 3.857-1.764 3.857-3.938C11.857 2.764 10.13 1 8 1 5.87 1 4.143 2.764 4.143 4.938 4.143 7.11 5.87 8.874 8 8.874zm0-6.563c1.417 0 2.571 1.179 2.571 2.626 0 1.446-1.154 2.625-2.571 2.625-1.417 0-2.571-1.179-2.571-2.625C5.429 3.49 6.583 2.313 8 2.313zm2.462 7.006l-1.514 4.225-.52-2.262.858-1.531H6.714l.857 1.531-.522 2.262-1.513-4.225C3.578 9.354 2 10.98 2 12.988v.7C2 14.412 2.576 15 3.286 15h9.428c.71 0 1.286-.588 1.286-1.313v-.7c0-2.007-1.578-3.633-3.538-3.669zm-5.89 4.37H3.285v-.7c0-.968.586-1.81 1.42-2.172l1.028 2.871H4.57zm8.142 0H10.27l1.026-2.872c.83.361 1.42 1.204 1.42 2.171v.7z" transform="translate(-970 -761) translate(640 347.294) translate(0 312.706) translate(24 98) translate(306) translate(0 3)"/>
                            </g>
                        </g>
                    </g>
                </g>
            </g>
        </g>
    </g>
</svg>
