<svg xmlns="http://www.w3.org/2000/svg" width="16" height="16" viewBox="0 0 16 16">
    <g fill="none" fill-rule="evenodd">
        <g fill="#1FAA39" fill-rule="nonzero">
            <g>
                <g>
                    <path d="M10.559 3.122l-.701.683c-.17.165-.167.434.006.596l2.884 2.695H.428c-.236 0-.428.187-.428.417v.974c0 .23.192.417.429.417h12.319l-2.884 2.695c-.173.162-.176.431-.006.596l.7.683c.168.163.44.163.607 0l4.71-4.583c.167-.163.167-.427 0-.59l-4.71-4.583c-.167-.163-.439-.163-.606 0z" transform="translate(-1252 -2561) translate(1186 2549) translate(66 12)"/>
                </g>
            </g>
        </g>
    </g>
</svg>
