<svg xmlns="http://www.w3.org/2000/svg" width="88" height="88" viewBox="0 0 88 88">
    <g fill="none" fill-rule="evenodd">
        <g>
            <g transform="translate(-864 -2740) translate(864 2740)">
                <circle cx="40" cy="40" r="40" fill="#F6F9F1"/>
                <circle cx="48" cy="48" r="40" stroke="#1FAA39" stroke-width=".5"/>
                <g>
                    <path fill="#2C2C2C" d="M24 24c4.64 0 8.4-3.76 8.4-8.4 0-4.64-3.76-8.4-8.4-8.4-4.64 0-8.4 3.76-8.4 8.4-.001 2.228.883 4.365 2.459 5.941C19.635 23.117 21.772 24.001 24 24zm0-14.4c3.314 0 6 2.686 6 6s-2.686 6-6 6-6-2.686-6-6c.005-3.312 2.688-5.995 6-6zm-16.8 12c3.314 0 6-2.686 6-6s-2.686-6-6-6-6 2.686-6 6 2.686 6 6 6zm0-9.6c1.988 0 3.6 1.612 3.6 3.6s-1.612 3.6-3.6 3.6-3.6-1.612-3.6-3.6S5.212 12 7.2 12zm21.66 26.4H13.2c-.663 0-1.2-.537-1.2-1.2v-3.36c-.001-1.24.367-2.451 1.057-3.48 1.035-1.537 2.88-2.46 4.928-2.46 2.047 0 2.79.9 6.015.9.916.01 1.83-.082 2.725-.274.227-.952.571-1.87 1.025-2.737-1.04.263-1.958.611-3.75.611-2.88 0-3.503-.9-6.008-.9-2.722 0-5.37 1.215-6.922 3.517-.961 1.425-1.473 3.105-1.47 4.823v3.36c0 1.988 1.612 3.6 3.6 3.6h18.075c-.914-.682-1.727-1.49-2.414-2.4zM11.784 24.968c-.907-.626-1.981-.964-3.083-.968h-3C2.557 24 0 26.692 0 30c0 .663.537 1.2 1.2 1.2.663 0 1.2-.537 1.2-1.2 0-1.988 1.485-3.6 3.3-3.6h3c.405.002.806.086 1.178.248.564-.636 1.203-1.2 1.905-1.68z" transform="translate(20 20)"/>
                    <path fill="#1FAA39" fill-rule="nonzero" d="M38.4 21.6c5.302 0 9.6 4.298 9.6 9.6s-4.298 9.6-9.6 9.6-9.6-4.298-9.6-9.6 4.298-9.6 9.6-9.6zm0 2.4c-3.976 0-7.2 3.224-7.2 7.2s3.224 7.2 7.2 7.2 7.2-3.224 7.2-7.2-3.224-7.2-7.2-7.2zm1.2 2.4c.22 0 .4.179.4.4v2.8h2.8c.221 0 .4.18.4.4v2.4c0 .22-.179.4-.4.4H40v2.8c0 .221-.18.4-.4.4h-2.4c-.106 0-.208-.042-.283-.117-.075-.075-.117-.177-.117-.283v-2.8H34c-.221 0-.4-.18-.4-.4V30c0-.106.042-.208.117-.283.075-.075.177-.117.283-.117h2.8v-2.8c0-.221.18-.4.4-.4z" transform="translate(20 20)"/>
                </g>
            </g>
        </g>
    </g>
</svg>
