<svg xmlns="http://www.w3.org/2000/svg" width="80" height="80" viewBox="0 0 80 80">
    <g fill="none" fill-rule="evenodd">
        <g>
            <g>
                <g transform="translate(-992 -1446) translate(880 1358) translate(116 94)">
                    <circle cx="44" cy="42" r="32" fill="#F6F9F1"/>
                    <path fill="#1FAA39" fill-rule="nonzero" d="M65.106 52.51c.34-.68 1.449-.68 1.788 0l1.517 3.047 3.033 1.523c.34.17.556.517.556.898s-.215.729-.556.898L68.411 60.4l-1.517 3.047c-.17.34-.515.554-.894.554s-.725-.214-.894-.554l-1.517-3.047-3.033-1.523c-.34-.169-.556-.517-.556-.898 0-.38.215-.729.556-.898l3.033-1.523zM66 55.204l-.77 1.55c-.098.194-.255.351-.448.449l-1.544.775 1.544.775c.193.098.35.256.447.45l.771 1.55.77-1.55c.098-.194.255-.352.448-.45l1.544-.775-1.544-.775c-.193-.098-.35-.255-.447-.45L66 55.205zM5.106.51c.34-.68 1.449-.68 1.788 0l1.517 3.046 3.034 1.524c.34.17.555.517.555.898 0 .38-.215.728-.555.898L8.411 8.399l-1.517 3.047c-.17.34-.515.554-.894.554s-.725-.214-.894-.554L3.589 8.399.555 6.876C.215 6.706 0 6.359 0 5.978c0-.38.215-.729.555-.898l3.034-1.524zM6 3.204L5.23 4.75c-.098.194-.255.351-.448.449l-1.545.778 1.545.778c.193.098.35.255.447.449L6 8.752l.77-1.55c.098-.194.255-.35.448-.448l1.545-.779L7.218 5.2c-.193-.097-.35-.253-.447-.446L6 3.204z"/>
                    <path fill="#2C2C2C" d="M40 4C27.133 4 17.985 14.445 18 26.03c0 5.315 1.935 10.45 5.445 14.443C26.652 44.125 29.73 50.086 30 52l.008 9.399c0 .393.117.777.336 1.104l3.062 4.605c.37.557.995.892 1.664.892h9.856c.67 0 1.297-.334 1.668-.892l3.062-4.608c.217-.327.334-.71.337-1.104L50 52c.281-1.965 3.375-7.899 6.555-11.527 5.686-6.494 7.047-15.713 3.48-23.573C56.467 9.04 48.63 3.995 40 4zm5.992 56.789L43.855 64H36.14l-2.133-3.211V60h11.99l-.005.789zM46 56H34l-.008-4H46v4zm1.23-8.002H32.778c-1.785-4.152-4.575-8.168-6.325-10.161-2.87-3.275-4.45-7.482-4.446-11.837C21.985 16.375 29.555 8 40 8c9.926 0 18 8.074 18 18 0 4.355-1.583 8.561-4.453 11.837-1.746 1.993-4.536 6.01-6.317 10.16z"/>
                    <path fill="#1FAA39" d="M40 10c-7.728.01-13.99 6.272-14 14 0 1.105.895 2 2 2s2-.895 2-2c.006-5.52 4.48-9.993 10-10 1.105 0 2-.895 2-2 0-1.104-.895-2-2-2z"/>
                </g>
            </g>
        </g>
    </g>
</svg>
