<svg xmlns="http://www.w3.org/2000/svg" width="16" height="16" viewBox="0 0 16 16">
    <g fill="none" fill-rule="evenodd">
        <g fill="#1FAA39" fill-rule="nonzero">
            <g>
                <g>
                    <path d="M14.606 1l-4.462.005c-.218 0-.394.176-.394.393v.911c0 .106.043.207.118.281.076.075.178.115.284.113l2.013-.074.056.056-7.625 7.625c-.062.062-.096.145-.096.233 0 .087.034.17.096.232l.63.629c.06.062.144.097.232.097.087 0 .17-.035.232-.097l7.625-7.625.056.056-.074 2.013c-.002.106.038.208.113.284.074.075.175.118.28.118h.912c.217 0 .393-.176.393-.394L15 1.394c0-.218-.176-.394-.394-.394zm-1.793 7.875h-.438c-.242 0-.438.196-.438.438v4.21c0 .091-.073.165-.164.165H2.477c-.091 0-.164-.074-.164-.165V4.227c0-.091.073-.165.164-.165h4.21c.242 0 .438-.195.438-.437v-.438c0-.241-.196-.437-.438-.437H2.313C1.589 2.75 1 3.338 1 4.063v9.625C1 14.412 1.588 15 2.313 15h9.624c.725 0 1.313-.588 1.313-1.313V9.314c0-.242-.196-.438-.438-.438z" transform="translate(-352 -4821) translate(112 4780) translate(240 41)"/>
                </g>
            </g>
        </g>
    </g>
</svg>
