<svg xmlns="http://www.w3.org/2000/svg" width="80" height="80" viewBox="0 0 80 80">
    <g fill="none" fill-rule="evenodd">
        <g>
            <g>
                <g transform="translate(-368 -1446) translate(256 1358) translate(112 88)">
                    <circle cx="32" cy="32" r="32" fill="#F6F9F1"/>
                    <path fill="#1FAA39" fill-rule="nonzero" d="M73.106 7.51c.34-.68 1.449-.68 1.788 0l1.517 3.047 3.033 1.523c.34.17.556.517.556.898s-.215.729-.556.898L76.411 15.4l-1.517 3.047c-.17.34-.515.554-.894.554s-.725-.214-.894-.554l-1.517-3.047-3.033-1.523c-.34-.169-.556-.517-.556-.898 0-.38.215-.729.556-.898l3.033-1.523zM74 10.204l-.77 1.55c-.098.194-.255.351-.448.449l-1.544.775 1.544.775c.193.098.35.256.447.45l.771 1.55.77-1.55c.098-.194.255-.352.448-.45l1.544-.775-1.544-.775c-.193-.098-.35-.255-.447-.45L74 10.205zM5.106 57.51c.34-.68 1.449-.68 1.788 0l1.517 3.046 3.034 1.524c.34.17.555.517.555.898 0 .38-.215.728-.555.898l-3.034 1.523-1.517 3.047c-.17.34-.515.554-.894.554s-.725-.214-.894-.554l-1.517-3.047-3.034-1.523c-.34-.17-.555-.517-.555-.898 0-.38.215-.729.555-.898l3.034-1.524zM6 60.204l-.77 1.547c-.098.194-.255.351-.448.449l-1.545.778 1.545.778c.193.098.35.255.447.449L6 65.752l.77-1.55c.098-.194.255-.35.448-.448l1.545-.779-1.545-.775c-.193-.097-.35-.253-.447-.446L6 60.204z"/>
                    <path fill="#2C2C2C" fill-rule="nonzero" d="M62.852 36.992c.058-.328.148-.647.148-.992V26c0-3.314-2.686-6-6-6h-2c-.79 0-1.54.161-2.231.44C52.078 17.89 49.765 16 47 16h-2c-2.765 0-5.078 1.89-5.769 4.44C38.54 20.161 37.79 20 37 20h-2c-2.765 0-5.078 1.89-5.769 4.44C28.54 24.161 27.79 24 27 24h-2c-3.314 0-6 2.686-6 6v23.373c0 4.77 1.895 9.347 5.269 12.72L27 68.828V79c0 .552.448 1 1 1h2c.552 0 1-.448 1-1V67.171l-3.902-3.904C24.474 60.643 23 57.084 23 53.373v-5.74c.629.223 1.295.368 2 .368h2c1.543 0 2.936-.601 4-1.56 1.064.96 2.458 1.56 4 1.56h2c1.645 0 3.136-.667 4.221-1.744.03.038 1.168 1.829 3.828 2.956-2.459 1.974-4.24 4.468-7.159 8.847-.147.22-.2.49-.149.75.052.26.206.49.426.636l1.664 1.11c.22.147.49.2.75.149.26-.052.49-.206.636-.426l.79-1.184c3.988-5.984 6.444-8.787 12.014-9.07.532-.028.978-.459.978-.992V47c0-.553-.448-1-1-1h-5.084c-3.27 0-5.92-2.651-5.92-5.92v-.093c0-1.097.89-1.987 1.988-1.987H55c4.419 0 8 3.581 8 8v11.04c0 3.176-1.261 6.221-3.508 8.467L55 70v9c0 .552.447 1 1 1h2c.553 0 1-.448 1-1v-7.344l3.314-3.314c3-3 4.686-7.07 4.686-11.313V46c0-3.609-1.626-6.807-4.148-9.008zM29 42c0 1.105-.895 2-2 2h-2c-1.105 0-2-.895-2-2V30c0-1.105.895-2 2-2h2c1.105 0 2 .895 2 2v12zm10 0c0 1.105-.895 2-2 2h-2c-1.105 0-2-.895-2-2V26c0-1.105.895-2 2-2h2c1.105 0 2 .895 2 2v16zm10-8h-4.004c-.697 0-1.365.138-1.996.356V22c0-1.105.895-2 2-2h2c1.105 0 2 .895 2 2v12zm10 .735c-1.256-.446-2.59-.735-4-.735h-2v-8c0-1.105.895-2 2-2h2c1.105 0 2 .895 2 2v8.735z"/>
                </g>
            </g>
        </g>
    </g>
</svg>
