<svg xmlns="http://www.w3.org/2000/svg" width="24" height="24" viewBox="0 0 24 24">
    <g fill="none" fill-rule="evenodd">
        <g fill="#2C2C2C">
            <g>
                <g>
                    <path d="M14.047 9.953c1.796 1.796 1.912 4.65.343 6.58-.22.272-.098.136-2.987 3.024-1.922 1.923-5.036 1.925-6.96 0-1.924-1.923-1.924-5.036 0-6.96 1.152-1.153 1.822-1.825 2.23-2.231.261-.262.714-.083.72.288.006.448.062.894.166 1.33.034.141-.01.29-.112.393L5.835 13.99c-1.152 1.152-1.156 3.02 0 4.176 1.152 1.152 3.02 1.157 4.176 0l2.644-2.643c1.15-1.15 1.152-3.024 0-4.177-.234-.233-.505-.426-.802-.57-.163-.079-.253-.255-.231-.434.048-.391.221-.77.52-1.07l.155-.153c.127-.127.322-.161.483-.08.457.229.886.534 1.267.915zm5.51-5.51c-1.924-1.925-5.038-1.923-6.96 0C9.708 7.33 9.83 7.195 9.61 7.467c-1.569 1.93-1.453 4.784.343 6.58.381.38.81.686 1.267.916.16.08.356.046.483-.081l.154-.154c.3-.3.473-.678.521-1.069.022-.179-.068-.355-.23-.434-.298-.144-.57-.337-.803-.57-1.152-1.153-1.15-3.026 0-4.177l2.644-2.643c1.157-1.157 3.024-1.152 4.176 0 1.156 1.157 1.152 3.024 0 4.176l-1.612 1.612c-.103.103-.146.252-.112.393.104.436.16.882.167 1.33.005.371.458.55.72.288l2.23-2.23c1.923-1.925 1.923-5.038 0-6.961z" transform="translate(-1316 -284) translate(1304 268) translate(12 16)"/>
                </g>
            </g>
        </g>
    </g>
</svg>
