<svg xmlns="http://www.w3.org/2000/svg" width="88" height="88" viewBox="0 0 88 88">
    <g fill="none" fill-rule="evenodd">
        <g>
            <g transform="translate(-864 -3000) translate(864 3000)">
                <circle cx="40" cy="40" r="40" fill="#F6F9F1"/>
                <circle cx="48" cy="48" r="40" stroke="#1FAA39" stroke-width=".5"/>
                <g>
                    <path fill="#2C2C2C" d="M1.2 28.783c.66 0 1.2-.54 1.2-1.2 0-.66-.54-1.2-1.2-1.2-.66 0-1.2.54-1.2 1.2 0 .667.54 1.2 1.2 1.2zm46.193-14.378l-8.512.015-3.839-3.74c-.682-.683-1.582-1.058-2.542-1.058h-7.574c-.78 0-1.507.293-2.122.75-.63-.487-1.402-.772-2.197-.772h-5.212c-.952 0-1.867.382-2.542 1.057l-3.75 3.748H.6c-.33 0-.6.27-.6.6v1.2c0 .329.27.599.6.599h4.2v14.385H.6c-.33 0-.6.27-.6.6v1.199c0 .33.27.6.6.6h4.2c1.319 0 2.384-1.065 2.391-2.377h2.49l6.112 5.847c2.234 1.807 5.384 1.754 7.573-.015l.54.465c.72.585 1.598.892 2.512.892 1.2 0 2.333-.525 3.105-1.47l1.642-2.016c1.23.667 3.217.675 4.5-.9l.712-.876c.465-.57.72-1.245.787-1.927h3.645c.007 1.312 1.08 2.377 2.392 2.377h4.2c.329 0 .599-.27.599-.6v-1.2c0-.33-.27-.6-.6-.6h-4.2v-14.37l4.2-.014c.33 0 .6-.27.6-.6v-1.2c-.007-.337-.277-.599-.607-.599zM34.51 31.616l-.713.877c-.405.495-1.155.607-1.687.172l-1.335-1.079-3.112 3.823c-.562.697-1.575.765-2.204.255l-2.295-1.957-.78.96c-1.252 1.537-3.524 1.777-4.994.592l-6.742-6.454h-3.45V16.796h2.895l4.447-4.445c.225-.225.533-.352.848-.352h5.211c.068.165.023.052.083.217l-4.425 4.063c-2.114 1.942-2.22 5.187-.314 7.264 1.072 1.17 4.394 2.946 7.266.315l1.71-1.567 9.418 7.638c.51.42.585 1.177.173 1.687zm6.284-2.811h-4.29c-.187-.262-.397-.517-.66-.735l-9.14-7.42 2.129-1.957c.487-.45.525-1.207.075-1.694-.45-.488-1.207-.518-1.695-.075l-5.631 5.157c-1.08.982-2.895.9-3.877-.165-1.02-1.11-.953-2.848.165-3.875l6.231-5.712c.225-.203.51-.315.81-.315h7.574c.322 0 .622.127.855.36l4.552 4.43h2.902v12.001zm5.999-2.414c-.66 0-1.2.54-1.2 1.2 0 .66.54 1.199 1.2 1.199.66 0 1.2-.54 1.2-1.2 0-.667-.54-1.199-1.2-1.199z" transform="translate(20 20)"/>
                    <path fill="#1FAA39" fill-rule="nonzero" d="M40.794 14.405l.015 16.806c.007 1.312 1.08 2.377 2.392 2.377h4.2c.329 0 .599-.27.599-.6v-1.2c0-.33-.27-.6-.6-.6h-4.2v-14.37l4.2-.014c.33 0 .6-.27.6-.6v-1.2c-.007-.337-.277-.599-.607-.599h-6.6zm0 14.4V16.804v12.001zm5.999-2.414c-.66 0-1.2.54-1.2 1.2 0 .66.54 1.199 1.2 1.199.66 0 1.2-.54 1.2-1.2 0-.667-.54-1.199-1.2-1.199zM1.2 28.783c.66 0 1.2-.54 1.2-1.2 0-.66-.54-1.2-1.2-1.2-.66 0-1.2.54-1.2 1.2 0 .667.54 1.2 1.2 1.2zm5.999-14.378h-6.6c-.329 0-.599.27-.599.6v1.2c0 .329.27.599.6.599h4.2v14.385H.6c-.33 0-.6.27-.6.6v1.199c0 .33.27.6.6.6h4.2c1.319 0 2.384-1.065 2.391-2.377L7.2 14.405zm0 14.4V16.796v12.009z" transform="translate(20 20)"/>
                </g>
            </g>
        </g>
    </g>
</svg>
