<svg xmlns="http://www.w3.org/2000/svg" width="16" height="16" viewBox="0 0 16 16">
    <g fill="none" fill-rule="evenodd">
        <g fill="#1FAA39" fill-rule="nonzero">
            <g>
                <g>
                    <g>
                        <g>
                            <g>
                                <path d="M8.875 11.063H8c-.242 0-.438.195-.438.437v.875c0 .242.196.438.438.438h.875c.242 0 .438-.196.438-.438V11.5c0-.242-.196-.438-.438-.438zm5.25-4.57v-3.38c0-.233-.092-.455-.256-.62L12.63 1.257c-.164-.164-.386-.256-.618-.256h-6.2c-.484 0-.875.392-.875.875v2.868c-.265-.158-.567-.241-.875-.243H2.75C1.784 4.5 1 5.284 1 6.25v7c0 .966.784 1.75 1.75 1.75h1.313c.399-.002.785-.14 1.093-.394.309.253.695.392 1.094.394h7c.966 0 1.75-.784 1.75-1.75V8c-.001-.623-.335-1.197-.875-1.507zM4.5 13.25c0 .242-.196.438-.438.438H2.75c-.242 0-.438-.196-.438-.438v-7c0-.242.196-.438.438-.438h1.313c.241 0 .437.196.437.438v7zM6.25 2.312h5.25v.876c0 .241.196.437.438.437h.874V6.25H6.25V2.312zm7.438 10.938c0 .242-.196.438-.438.438h-7c-.242 0-.438-.196-.438-.438V7.562h7.438c.242 0 .438.196.438.438v5.25zM8.875 8.437H8c-.242 0-.438.196-.438.438v.875c0 .242.196.438.438.438h.875c.242 0 .438-.196.438-.438v-.875c0-.242-.196-.438-.438-.438zm2.625 0h-.875c-.242 0-.438.196-.438.438v.875c0 .242.196.438.438.438h.875c.242 0 .438-.196.438-.438v-.875c0-.242-.196-.438-.438-.438zm0 2.626h-.875c-.242 0-.438.195-.438.437v.875c0 .242.196.438.438.438h.875c.242 0 .438-.196.438-.438V11.5c0-.242-.196-.438-.438-.438z" transform="translate(-817 -761) translate(640 347.294) translate(0 312.706) translate(24 98) translate(153) translate(0 3)"/>
                            </g>
                        </g>
                    </g>
                </g>
            </g>
        </g>
    </g>
</svg>
