<svg xmlns="http://www.w3.org/2000/svg" width="80" height="80" viewBox="0 0 80 80">
    <g fill="none" fill-rule="evenodd">
        <g>
            <g>
                <g>
                    <g fill="#F6F9F1" transform="translate(-367 -1052) translate(256 964) translate(111 88) translate(8)">
                        <circle cx="32" cy="32" r="32"/>
                    </g>
                    <g>
                        <path fill="#2C2C2C" d="M2 31.97c1.1 0 2-.899 2-1.998 0-1.1-.9-2-2-2s-2 .9-2 2c0 1.112.9 1.999 2 1.999zM78.988 8.009l-14.186.025L58.403 1.8C57.266.662 55.766.037 54.167.037H41.544c-1.3 0-2.513.488-3.537 1.25C36.957.475 35.669 0 34.345 0h-8.687c-1.587 0-3.112.637-4.236 1.762l-6.25 6.246H1c-.55 0-1 .45-1 1v1.999c0 .55.45 1 1 1h6.999V35.98h-7c-.55 0-.999.45-.999 1v1.999c0 .55.45 1 1 1h6.999c2.2 0 3.974-1.775 3.987-3.961h4.149l10.186 9.745c3.724 3.01 8.973 2.923 12.623-.025l.9.774c1.2.975 2.662 1.487 4.187 1.487 2 0 3.887-.875 5.174-2.449l2.737-3.36c2.05 1.111 5.362 1.124 7.499-1.5l1.187-1.461c.775-.95 1.2-2.074 1.312-3.211h6.074c.013 2.186 1.8 3.96 3.987 3.96h7c.55 0 .999-.45.999-1v-1.998c0-.55-.45-1-1-1h-6.999v-23.95l7-.025c.55 0 .999-.45.999-1V9.009c-.012-.562-.462-1-1.012-1zM57.516 36.693l-1.187 1.462c-.675.825-1.925 1.012-2.812.287l-2.225-1.799-5.187 6.372c-.937 1.162-2.624 1.274-3.674.425l-3.825-3.26-1.3 1.598c-2.087 2.561-5.873 2.961-8.323.987L17.747 32.008h-5.749V11.994h4.824l7.412-7.409c.375-.375.887-.587 1.412-.587h8.686c.113.275.038.087.138.362l-7.374 6.772c-3.525 3.236-3.7 8.645-.525 12.106 1.787 1.949 7.324 4.91 12.11.525l2.85-2.612 15.698 12.731c.85.7.974 1.962.287 2.811zm10.473-4.685H60.84c-.312-.437-.662-.862-1.1-1.224L44.507 18.415l3.549-3.26c.812-.75.875-2.012.125-2.824-.75-.812-2.012-.862-2.825-.125l-9.386 8.596c-1.8 1.636-4.824 1.499-6.461-.275-1.7-1.85-1.587-4.748.275-6.46l10.386-9.52c.375-.337.85-.524 1.35-.524h12.623c.537 0 1.037.212 1.424.6l7.587 7.383h4.836v20.002zm9.999-4.023c-1.1 0-2 .9-2 2 0 1.099.9 1.998 2 1.998s2-.9 2-1.999c0-1.112-.9-1.999-2-1.999z" transform="translate(-367 -1052) translate(256 964) translate(111 88) translate(0 32)"/>
                        <path fill="#1FAA39" d="M2 31.97c1.1 0 2-.899 2-1.998 0-1.1-.9-2-2-2s-2 .9-2 2c0 1.112.9 1.999 2 1.999zm9.986-23.962H1c-.55 0-1 .45-1 1v1.999c0 .55.45 1 1 1h6.999V35.98h-7c-.55 0-.999.45-.999 1v1.999c0 .55.45 1 1 1h6.999c2.2 0 3.974-1.775 3.987-3.961V8.009zm.012 24V11.994v20.014zM67.99 8.033l.024 27.986c.013 2.186 1.8 3.96 3.987 3.96h7c.55 0 .999-.45.999-1v-1.998c0-.55-.45-1-1-1h-6.999v-23.95l7-.025c.55 0 .999-.45.999-1V9.009c-.012-.562-.462-1-1.012-1l-10.999.025zm0 23.975V12.006v20.002zm9.998-4.023c-1.1 0-2 .9-2 2 0 1.099.9 1.998 2 1.998s2-.9 2-1.999c0-1.112-.9-1.999-2-1.999z" transform="translate(-367 -1052) translate(256 964) translate(111 88) translate(0 32)"/>
                    </g>
                    <path fill="#1FAA39" fill-rule="nonzero" d="M51.606 16.51c.34-.68 1.449-.68 1.788 0l1.517 3.047 3.033 1.523c.34.17.556.517.556.898s-.215.729-.556.898L54.911 24.4l-1.517 3.047c-.17.34-.515.554-.894.554s-.725-.214-.894-.554l-1.517-3.047-3.033-1.523c-.34-.169-.556-.517-.556-.898 0-.38.215-.729.556-.898l3.033-1.523zm.894 2.694l-.77 1.55c-.098.194-.255.351-.448.449l-1.544.775 1.544.775c.193.098.35.256.447.45l.771 1.55.77-1.55c.098-.194.255-.352.448-.45l1.544-.775-1.544-.775c-.193-.098-.35-.255-.447-.45l-.771-1.549zM27.606 12.51c.34-.68 1.449-.68 1.788 0l1.517 3.046 3.034 1.524c.34.17.555.517.555.898 0 .38-.215.728-.555.898l-3.034 1.523-1.517 3.047c-.17.34-.515.554-.894.554s-.725-.214-.894-.554l-1.517-3.047-3.034-1.523c-.34-.17-.555-.517-.555-.898 0-.38.215-.729.555-.898l3.034-1.524zm.894 2.694l-.77 1.547c-.098.194-.255.351-.448.449l-1.545.778 1.545.778c.193.098.35.255.447.449l.771 1.547.77-1.55c.098-.194.255-.35.448-.448l1.545-.779-1.545-.775c-.193-.097-.35-.253-.447-.446l-.771-1.55z" transform="translate(-367 -1052) translate(256 964) translate(111 88)"/>
                </g>
            </g>
        </g>
    </g>
</svg>
