<svg xmlns="http://www.w3.org/2000/svg" width="24" height="24" viewBox="0 0 24 24">
    <g fill="none" fill-rule="evenodd">
        <g fill="#CBD8AA">
            <g>
                <g>
                    <path d="M14 12c0 1.104-.896 2-2 2s-2-.896-2-2 .896-2 2-2 2 .896 2 2zm6-2c-1.104 0-2 .896-2 2s.896 2 2 2 2-.896 2-2-.896-2-2-2zM4 10c-1.104 0-2 .896-2 2s.896 2 2 2 2-.896 2-2-.896-2-2-2z" transform="translate(-796 -1952) translate(540 1948) translate(256 4)"/>
                </g>
            </g>
        </g>
    </g>
</svg>
