<svg xmlns="http://www.w3.org/2000/svg" width="24" height="24" viewBox="0 0 24 24">
    <g fill="none" fill-rule="evenodd">
        <g fill="#2C2C2C">
            <g>
                <g>
                    <path d="M22.45 9.25h-.55c-.304 0-.55.243-.55.542v.434c-.756-.601-1.703-.976-2.75-.976-2.43 0-4.4 1.94-4.4 4.333v1.084C14.2 17.06 16.17 19 18.6 19c1.047 0 1.994-.375 2.75-.976v.434c0 .3.246.542.55.542h.55c.304 0 .55-.243.55-.542V9.792c0-.3-.246-.542-.55-.542zm-1.1 5.417c0 1.495-1.231 2.708-2.75 2.708-1.518 0-2.75-1.213-2.75-2.708v-1.084c0-1.495 1.232-2.708 2.75-2.708 1.519 0 2.75 1.213 2.75 2.708v1.084zM8.305 6.35C8.225 6.14 8.02 6 7.79 6H6.31c-.228 0-.434.14-.515.35l-4.76 11.917c-.063.167-.04.353.063.5.103.146.272.233.453.233h.59c.228 0 .434-.14.515-.35l1.377-3.442h6.035l1.379 3.442c.08.21.286.35.515.35h.589c.18 0 .35-.087.453-.233.103-.147.126-.333.062-.5L8.306 6.35zm-3.62 7.233L7.05 7.678l2.366 5.905H4.685z" transform="translate(-1316 -444) translate(1304 268) translate(12 176)"/>
                </g>
            </g>
        </g>
    </g>
</svg>
