<svg xmlns="http://www.w3.org/2000/svg" width="120" height="120" viewBox="0 0 120 120">
    <g fill="none" fill-rule="evenodd">
        <g fill="#CBD8AA">
            <g>
                <g>
                    <g>
                        <path d="M70.084 119.156c-3.279.555-6.648.844-10.084.844s-6.805-.289-10.084-.844zm9.819-2.536c-.857.301-1.722.583-2.595.846H42.692c-.873-.263-1.738-.545-2.595-.846zm6.105-2.534c-.605.29-1.215.572-1.83.843H35.822c-.615-.27-1.225-.552-1.83-.843zm4.712-2.536c-.483.288-.97.57-1.461.845H30.74c-.491-.275-.978-.557-1.461-.845zm3.894-2.535c-.406.287-.815.569-1.228.846H26.614c-.413-.277-.822-.559-1.228-.846zm3.332-2.535c-.35.285-.701.566-1.057.843H23.111c-.356-.277-.708-.558-1.057-.843zm2.906-2.535c-.306.285-.616.566-.928.845H20.076c-.312-.279-.622-.56-.928-.845zm2.567-2.535c-.271.284-.545.566-.821.845H17.402c-.276-.28-.55-.56-.821-.845zm2.286-2.536c-.242.284-.486.565-.732.844H15.027c-.246-.279-.49-.56-.732-.844zm2.043-2.535c-.217.284-.435.566-.656.845H12.908c-.22-.28-.44-.561-.656-.845zm1.83-2.536c-.193.283-.389.565-.587.844H11.01c-.198-.28-.394-.56-.588-.844zm1.64-2.534c-.173.283-.348.564-.526.844H9.308c-.178-.28-.353-.561-.526-.844zm1.467-2.536c-.154.283-.311.565-.47.845H7.785c-.159-.28-.316-.562-.47-.845zm1.308-2.535c-.137.283-.277.565-.419.845H6.426c-.142-.28-.282-.562-.42-.845zm1.16-2.536c-.12.284-.245.566-.37.846H5.216c-.125-.28-.25-.562-.37-.846zm1.022-2.535c-.107.283-.215.565-.326.845H4.151c-.11-.28-.22-.562-.326-.845zm.889-2.535c-.092.283-.186.565-.282.845H3.218c-.096-.28-.19-.562-.282-.845zm.763-2.535c-.078.283-.158.564-.24.845H2.413c-.083-.28-.163-.562-.241-.845zm.643-2.536c-.065.283-.132.565-.201.846H1.731c-.07-.281-.136-.563-.201-.846zm.527-2.535c-.053.282-.107.564-.163.845H1.166c-.056-.281-.11-.563-.163-.845zm.412-2.535c-.04.282-.081.564-.125.845H.716c-.044-.28-.086-.563-.125-.845zm.303-2.535c-.028.282-.057.564-.089.845H.377c-.032-.281-.061-.563-.09-.845zm.194-2.535c-.015.282-.033.564-.052.845H.146c-.02-.281-.037-.563-.052-.845zm.088-2.536c-.004.283-.01.565-.017.846H.023C.008 61.129 0 60.565 0 60l.007.845zm-.017-2.536c.015.562.023 1.126.023 1.691l-.008-.846H.006c.004-.282.01-.564.017-.845zm-.123-2.535c.02.281.037.563.052.845H.094c.015-.282.033-.564.052-.845zm-.23-2.535c.03.281.06.563.088.845H.288c.028-.282.057-.564.089-.845zm-.34-2.535c.044.28.086.563.125.845H.591c.04-.282.081-.564.125-.845zm-.45-2.535c.056.281.11.563.163.845H1.003c.053-.282.107-.564.163-.845zm-.565-2.536c.07.281.136.563.201.846H1.53c.065-.283.132-.565.201-.846zm-.683-2.535c.083.28.163.562.241.845H2.173c.078-.283.158-.564.24-.845zm-.804-2.535c.096.28.19.562.282.845H2.936c.092-.283.186-.565.282-.845zm-.933-2.535c.11.28.22.562.326.845H3.825c.107-.283.215-.565.326-.845zm-1.067-2.536c.126.28.25.562.372.846H4.846c.122-.284.246-.566.371-.846zm-1.208-2.535c.142.28.282.562.42.845H6.006c.137-.283.277-.565.419-.845zm-1.36-2.535c.16.28.317.562.471.845H7.315c.154-.283.311-.565.47-.845zm-1.522-2.535c.178.28.353.561.526.844H8.782c.173-.283.348-.564.526-.844zm-1.7-2.534c.197.28.393.56.587.844H10.42c.194-.283.39-.565.588-.844zm-1.9-2.537c.22.28.44.561.656.845H12.252c.217-.284.435-.566.656-.845zm-2.12-2.534c.247.279.491.56.733.844h-91.41c.242-.284.486-.565.732-.844zm-2.374-2.537c.276.28.55.56.821.845H16.581c.271-.284.545-.566.821-.845zm-2.674-2.535c.312.279.622.56.928.845H19.148c.306-.285.616-.566.928-.845zm-3.035-2.533c.356.277.708.558 1.057.843H22.054c.35-.285.701-.566 1.057-.843zm-3.503-2.538c.413.277.822.559 1.228.846H25.386c.406-.287.815-.569 1.228-.846zM89.26 7.605c.491.275.978.557 1.461.845H29.28c.483-.288.97-.57 1.461-.845zm-5.081-2.534c.615.27 1.225.552 1.83.843H33.992c.605-.29 1.215-.572 1.83-.843zm-6.87-2.537c.873.263 1.738.545 2.595.846H40.097c.857-.301 1.722-.583 2.595-.846zM60 0c3.436 0 6.805.289 10.084.844H49.916C53.195.289 56.564 0 60 0z" transform="translate(-248 -1792) translate(64 1792) translate(96) translate(88)"/>
                    </g>
                </g>
            </g>
        </g>
    </g>
</svg>
