<svg xmlns="http://www.w3.org/2000/svg" width="482" height="164" viewBox="0 0 482 164">
    <g fill="none" fill-rule="evenodd">
        <g>
            <g>
                <path fill="#F6F9F1" d="M0 44H482V164H0z" transform="translate(-1199 -2524) matrix(-1 0 0 1 1681 2524)"/>
                <g fill="#CBD8AA">
                    <path d="M0 112.658H430V113.772H0zM0 117.74H430V118.854H0zM0 122.823H430V123.937H0zM0 107.576H430V108.69H0zM0 102.493H430V103.607H0zM0 97.411H430V98.525H0zM0 92.329H430V93.443H0zM0 87.246H430V88.36H0zM0 82.164H430V83.278H0zM0 77.082H430V78.196H0zM0 71.999H430V73.113H0zM0 66.917H430V68.031H0zM0 61.835H430V62.949H0zM0 56.753H430V57.867H0zM0 51.67H430V52.784H0zM0 46.588H430V47.702H0zM0 41.506H430V42.62H0zM0 36.423H430V37.537H0zM0 31.341H430V32.455H0zM0 26.259H430V27.373H0zM0 21.176H430V22.29H0zM0 16.094H430V17.208000000000002H0zM0 11.012H430V12.126000000000001H0zM0 5.93H430V7.044H0zM0 .847H430V1.961H0z" transform="translate(-1199 -2524) matrix(-1 0 0 1 1681 2524) translate(12)"/>
                </g>
            </g>
        </g>
    </g>
</svg>
