<svg xmlns="http://www.w3.org/2000/svg" width="380" height="442" viewBox="0 0 380 442">
    <g fill="none" fill-rule="evenodd">
        <g>
            <g>
                <path fill="#F6F9F1" d="M321 3.807c-56.154-9.203-109.46-1.72-159.92 22.447C85.39 62.504 54.106 85.426 22.873 146.59-8.36 207.755-4.512 275.267 15.89 310.58c20.4 35.314 59.594 75.074 151.263 86.923 61.113 7.9 112.396-2.954 153.848-32.56V3.807z" transform="translate(-1120 -999) translate(1120 999)"/>
                <path fill="#CBD8AA" d="M288.206 441.42c-10.727.773-21.858.773-33.394 0zm22.716-2.902c-1.086.203-2.178.397-3.274.582h-74.73c-1.316-.187-2.62-.38-3.912-.58zm12.97-2.901c-.758.198-1.518.392-2.28.581H215.872c-.952-.19-1.897-.384-2.835-.582zm9.898-2.901c-.603.196-1.209.39-1.815.58H202.96c-.762-.191-1.519-.385-2.27-.58zm8.22-2.902c-.514.196-1.029.39-1.545.58l-148.081.001c-.642-.192-1.28-.385-1.913-.58zm7.11-2.902c-.45.196-.9.39-1.351.58H183.357c-.556-.192-1.11-.385-1.66-.58zm6.314-2.901c-.402.195-.805.388-1.209.58h-178.76c-.492-.192-.981-.386-1.468-.58zm5.706-2.902c-.365.194-.73.388-1.097.58h-191.6c-.441-.193-.88-.386-1.316-.58zm5.218-2.902c-.336.195-.673.389-1.01.581h-203.23c-.4-.194-.798-.387-1.194-.582zm4.818-2.901c-.31.194-.622.387-.933.58l-213.876-.001c-.365-.193-.727-.386-1.088-.58zm4.484-2.903c-.29.195-.58.388-.872.58H151.101c-.335-.193-.67-.386-1.001-.58zm4.195-2.902c-.272.195-.545.389-.819.582l-232.787-.002c-.31-.192-.618-.386-.925-.58zM380 406.6v.58l-238.24.001c-.289-.193-.575-.387-.86-.58H380zm0-2.902v.58H137.584c-.268-.192-.534-.386-.8-.58H380zm0-2.901v.58H133.692c-.25-.193-.499-.386-.747-.58H380zm0-2.902v.58l-249.947.001c-.235-.193-.468-.387-.7-.58L380 397.893zm0-2.902v.58H126.64c-.22-.192-.439-.386-.657-.579H380zm0-2.902v.58H123.433l-.617-.579H380zm0-2.901v.58H120.416l-.583-.58H380zm0-2.902v.58H117.57l-.549-.58H380zm0-2.902v.58H114.883l-.519-.58H380zm0-2.901v.58H112.343l-.491-.58H380zm0-2.902v.58H109.94c-.157-.193-.312-.386-.466-.58H380zm0-2.902v.58H107.66l-.44-.579H380zm0-2.902v.58H105.498c-.14-.193-.28-.386-.418-.58H380zm0-2.901v.58H103.446c-.134-.193-.267-.387-.399-.58H380zm0-2.902v.58H101.495l-.379-.58H380zm0-2.902v.58H99.638c-.121-.193-.241-.387-.36-.58H380zm0-2.901v.58H97.87l-.344-.58H380zm0-2.902v.58H96.189c-.107-.192-.214-.384-.32-.578L380 357.27zm0-2.902v.58l-285.351.002-.29-.58L380 354.368zm0-2.902v.58l-286.752.003c-.089-.193-.177-.387-.265-.582H380zm0-2.901v.58l-288.03.002-.242-.58L380 348.565zm0-2.902v.58l-289.199.003-.221-.581 289.42-.002zm0-2.902v.58H89.731l-.202-.578L380 342.761zm0-2.901v.58l-291.247.001-.185-.58L380 339.86zm0-2.902v.58l-292.141.002-.17-.582H380zm0-2.902v.58l-292.958.001-.154-.579L380 334.056zm0-2.902v.58l-293.701.001-.14-.579L380 331.154zm0-2.901v.58l-294.375.002-.127-.581L380 328.253zm0-2.902v.58l-294.984.002c-.039-.193-.077-.387-.114-.58L380 325.35zm0-2.902v.58l-295.53.002c-.035-.193-.069-.387-.102-.58L380 322.449zm0-2.901v.58H83.983l-.09-.58H380zm0-2.902v.58l-296.446.002-.08-.582H380zm0-2.902v.58l-296.82.002-.068-.58L380 313.743zm0-2.902v.58l-297.14.002-.057-.58L380 310.842zm0-2.901v.58l-297.407.001-.047-.58L380 307.94zm0-2.902v.58l-297.623.001-.037-.58L380 305.04zm0-2.902v.58H82.21c-.01-.192-.018-.385-.027-.579H380zm0-2.901v.58H82.093c-.007-.193-.013-.386-.018-.58H380zm0-2.902v.58l-297.977.001-.009-.582H380zm0-2.902v.58l-298 .001.001-.58H380zm0-2.902v.58l-297.976.001.01-.58H380zm0-2.901v.58l-297.906.001.02-.58L380 287.629zm0-2.902v.58H82.21l.028-.58H380zm0-2.902v.58l-297.63.002.038-.581H380zm0-2.901v.58H82.576c.015-.193.03-.387.047-.58H380zm0-2.902v.58l-297.173.001.055-.58L380 276.021zm0-2.902v.58H83.122l.064-.58H380zm0-2.902v.58H83.462l.074-.58H380zm0-2.901v.58l-296.153.001.082-.58L380 267.316zm0-2.902v.58H84.276l.091-.58H380zm0-2.902v.58l-295.25.001.1-.58H380zm0-2.901v.58H85.27l.109-.58H380zm0-2.902v.58H85.834l.119-.58H380zm0-2.902v.58l-293.556.001.128-.58H380zm0-2.902v.58H87.1l.138-.58H380zm0-2.901v.58H87.803c.049-.193.097-.387.147-.58H380zm0-2.902v.58H88.553l.156-.58H380zm0-2.902v.58H89.35l.165-.58H380zm0-2.901v.58H90.196l.174-.58H380zm0-2.902v.58H91.09c.06-.193.122-.387.184-.58H380zm0-2.902v.58H92.033l.195-.58H380zm0-2.902v.58H93.027l.205-.58H380zm0-2.901v.58H94.072c.072-.194.143-.387.216-.58H380zm0-2.902v.58H95.17l.226-.58H380zm0-2.902v.58H96.32l.237-.58H380zm0-2.901v.58H97.525l.248-.581H380zm0-2.902v.58H98.785l.26-.58H380zm0-2.902v.58H100.103l.27-.58H380zm0-2.902v.58H101.479c.093-.193.187-.387.282-.58H380zm0-2.901v.58l-277.084-.001.292-.58H380zm0-2.902v.58l-275.598-.002.302-.58 275.296.002zm0-2.902v.58H105.923l.31-.582 273.767.002zm0-2.901v.58l-272.518-.002.316-.58 272.202.002zm0-2.902v.58l-270.92-.002.324-.58 270.596.002zm0-2.902v.58l-269.28-.002.333-.578H380zm0-2.902v.58l-267.592-.002.342-.579 267.25.001zm0-2.901v.58l-265.855-.003.353-.578H380zm0-2.902v.58l-264.064-.002.365-.58 263.699.002zm0-2.902v.58l-262.213-.001.377-.579H380zm0-2.902v.58l-260.297-.001.39-.579H380zm0-2.901v.58l-258.311-.001.406-.581 257.905.002zm0-2.902v.58H123.75c.14-.194.281-.388.423-.581L380 171.56zm0-2.902v.58l-254.104-.001.439-.58 253.665.001zm0-2.901v.58l-251.87-.002.457-.579H380zm0-2.902v.58H130.46l.48-.582 249.06.002zm0-2.902v.58H132.898l.5-.58H380zm0-2.902v.58H135.449c.174-.194.35-.388.525-.58H380zm0-2.901v.58l-241.877-.001.55-.58H380zm0-2.902v.58H140.928l.577-.58H380zm0-2.902v.58H143.875l.607-.58H380zm0-2.901v.58l-233.027-.001c.213-.194.426-.388.64-.58H380zm0-2.902v.58H150.231l.673-.581H380zm0-2.902v.58H153.66c.234-.194.469-.387.704-.579H380zm0-2.902v.58H157.265c.247-.193.494-.387.743-.58H380zm0-2.901v.58H161.055l.78-.58H380zm0-2.902v.58H165.037c.271-.194.544-.387.818-.58H380zm0-2.902v.58H169.211c.285-.194.571-.387.858-.58H380zm0-2.901v.58H173.582c.298-.194.597-.388.897-.58H380zm0-2.902v.58H178.147l.937-.58H380zm0-2.902v.58H182.906l.975-.58H380zm0-2.902v.58H187.852l1.01-.58H380zm0-2.901v.58H192.974l1.047-.58H380zm0-2.902v.58H198.268l1.078-.58H380zm0-2.902v.58H203.718l1.107-.58H380zm0-2.901v.58H209.312l1.134-.58H380zm0-2.902v.58l-164.967.001c.385-.193.771-.387 1.159-.58L380 101.918zm0-2.902v.58l-159.13.001 1.18-.58H380zm0-2.902v.58l-153.19.001 1.198-.58H380zm0-2.901v.58H232.843c.412-.195.824-.389 1.237-.581H380zm0-2.902v.58H239.192c.442-.195.884-.388 1.326-.58H380zm0-2.902v.58H246.035c.48-.195.96-.389 1.44-.58H380zm0-2.901v.58l-126.5-.002c.527-.195 1.053-.388 1.58-.58L380 84.51zm0-2.902v.58H261.77c.593-.197 1.186-.39 1.779-.582L380 81.607zm0-2.902v.58H271.166c.684-.197 1.369-.39 2.054-.58H380zm0-2.902v.58h-97.726c.837-.198 1.675-.391 2.514-.58H380zm-4.085-2.902c1.36.202 2.722.415 4.085.64l-.36-.059h-83.15c1.176-.203 2.354-.397 3.533-.582zm-55.304-2.321c11.178-.773 22.487-.773 33.927 0z" transform="translate(-1120 -999) translate(1120 999)"/>
            </g>
        </g>
    </g>
</svg>
