<svg xmlns="http://www.w3.org/2000/svg" width="100%" height="100%" viewBox="0 0 1440 1400">
    <g fill="none" fill-rule="evenodd">
        <g fill="#FBFCF8">
            <path d="M0 3580c98.117 6.247 194.658 40.607 289.622 103.08 142.445 93.707 226.567 34.458 350.378 138.922 123.811 104.463 92.407 189.7 221 274.448 128.593 84.747 220.904 3.68 354.316 66.532 88.942 41.903 163.837 80.908 224.684 117.018v700c-98.117-6.247-194.658-40.607-289.622-103.08-142.445-93.707-226.567-34.458-350.378-138.922-123.811-104.463-92.407-189.7-221-274.448-128.593-84.747-220.904-3.68-354.316-66.532C135.742 4355.115 60.847 4316.11 0 4280v-700z" transform="translate(0 -3580) matrix(-1 0 0 1 1440 0)"/>
        </g>
    </g>
</svg>
