<svg xmlns="http://www.w3.org/2000/svg" width="240" height="120" viewBox="0 0 240 120">
    <g fill="none" fill-rule="evenodd">
        <g fill="#CBD8AA">
            <g>
                <path d="M0 109.268H240V110.268H0zM0 114.146H240V115.146H0zM0 119.024H240V120.024H0zM0 104.39H240V105.39H0zM0 99.512H240V100.512H0zM0 93.659H240V94.659H0zM0 88.78H240V89.78H0zM0 83.902H240V84.902H0zM0 79.024H240V80.024H0zM0 74.146H240V75.146H0zM0 69.268H240V70.268H0zM0 64.39H240V65.39H0zM0 59.512H240V60.512H0zM0 54.634H240V55.634H0zM0 49.756H240V50.756H0zM0 44.878H240V45.878H0zM0 40H240V41H0zM0 34.146H240V35.146H0zM0 29.268H240V30.268H0zM0 24.39H240V25.39H0zM0 19.512H240V20.512H0zM0 14.634H240V15.634H0zM0 9.756H240V10.756H0zM0 4.878H240V5.878H0zM0 0H240V1H0z" transform="translate(-1200 -640) translate(1200 640)"/>
            </g>
        </g>
    </g>
</svg>
