<svg xmlns="http://www.w3.org/2000/svg" width="190" height="377" viewBox="0 0 190 377">
    <g fill="none" fill-rule="evenodd">
        <g>
            <g>
                <path fill="#F6F9F1" d="M64 0H190V346H64z" transform="translate(41 -1485) translate(-41 1485)"/>
                <g fill="#CBD8AA">
                    <path d="M0 330H161V331H0zM0 325H161V326H0zM0 320H161V321H0zM0 315H161V316H0zM0 310H161V311H0zM0 305H161V306H0zM0 300H161V301H0zM0 295H161V296H0zM0 290H161V291H0zM0 285H161V286H0zM0 280H161V281H0zM0 275H161V276H0zM0 270H161V271H0zM0 265H161V266H0zM0 260H161V261H0zM0 255H161V256H0zM0 250H161V251H0zM0 245H161V246H0zM0 240H161V241H0zM0 235H161V236H0zM0 230H161V231H0zM0 225H161V226H0zM0 220H161V221H0zM0 215H161V216H0zM0 210H161V211H0zM0 205H161V206H0zM0 200H161V201H0zM0 195H161V196H0zM0 190H161V191H0zM0 185H161V186H0zM0 180H161V181H0zM0 175H161V176H0zM0 170H161V171H0zM0 165H161V166H0zM0 160H161V161H0zM0 155H161V156H0zM0 150H161V151H0zM0 145H161V146H0zM0 140H161V141H0zM0 135H161V136H0zM0 130H161V131H0zM0 125H161V126H0zM0 120H161V121H0zM0 115H161V116H0zM0 110H161V111H0zM0 105H161V106H0zM0 100H161V101H0zM0 95H161V96H0zM0 90H161V91H0zM0 85H161V86H0zM0 80H161V81H0zM0 75H161V76H0zM0 70H161V71H0zM0 65H161V66H0zM0 60H161V61H0zM0 55H161V56H0zM0 50H161V51H0zM0 45H161V46H0zM0 40H161V41H0zM0 35H161V36H0zM0 30H161V31H0zM0 25H161V26H0zM0 20H161V21H0zM0 15H161V16H0zM0 10H161V11H0zM0 5H161V6H0zM0 0H161V1H0z" transform="translate(41 -1485) translate(-41 1485) translate(0 46)"/>
                </g>
            </g>
        </g>
    </g>
</svg>
