<svg xmlns="http://www.w3.org/2000/svg" width="289" height="288" viewBox="0 0 289 288">
    <g fill="none" fill-rule="evenodd">
        <g>
            <g transform="translate(-1261 -939) translate(1261 939)">
                <path fill="#CBD8AA" d="M140.166 238.313C133.609 239.423 126.872 240 120 240s-13.61-.578-20.166-1.687zm19.64-5.073c-1.712.602-3.443 1.166-5.19 1.692H85.384c-1.747-.526-3.478-1.09-5.19-1.692zm12.21-5.069c-1.21.583-2.43 1.146-3.662 1.689H71.646c-1.231-.543-2.452-1.106-3.662-1.689zm9.424-5.071c-.965.576-1.939 1.14-2.922 1.69H61.482c-.983-.55-1.957-1.114-2.922-1.69zm7.788-5.07c-.81.573-1.629 1.137-2.455 1.691H53.227c-.826-.554-1.644-1.118-2.455-1.691zm6.662-5.07c-.697.57-1.401 1.132-2.112 1.687H46.222c-.71-.555-1.415-1.117-2.112-1.687zm5.814-5.07c-.613.57-1.231 1.133-1.856 1.69H40.152c-.625-.557-1.243-1.12-1.856-1.69zm5.135-5.07c-.543.568-1.09 1.132-1.645 1.69H34.806c-.554-.558-1.102-1.122-1.645-1.69zm4.57-5.072c-.482.568-.97 1.13-1.464 1.689H30.055c-.493-.558-.982-1.121-1.465-1.689zm4.087-5.07c-.433.567-.87 1.13-1.312 1.69H25.816c-.442-.56-.88-1.123-1.312-1.69zm3.661-5.072c-.387.567-.779 1.13-1.175 1.69H22.018c-.396-.56-.788-1.123-1.175-1.69zm3.28-5.068c-.347.566-.698 1.13-1.054 1.69H18.617c-.356-.56-.707-1.124-1.053-1.69zm2.934-5.072c-.31.566-.623 1.13-.941 1.69H15.57c-.318-.56-.632-1.124-.941-1.69zm2.616-5.07c-.275.566-.554 1.13-.838 1.69H12.85c-.284-.56-.563-1.124-.838-1.69zm2.32-5.071c-.243.566-.49 1.13-.742 1.69H10.435c-.252-.56-.5-1.124-.742-1.69zm2.042-5.07c-.213.566-.43 1.129-.65 1.69H8.301c-.221-.561-.438-1.124-.651-1.69zm1.778-5.07c-.184.565-.372 1.128-.564 1.69H6.437c-.192-.562-.38-1.125-.564-1.69zm1.528-5.072c-.157.566-.317 1.129-.482 1.69H4.827c-.165-.561-.325-1.124-.482-1.69zm1.286-5.07c-.13.564-.265 1.128-.403 1.69H3.462c-.138-.562-.272-1.126-.403-1.69zm1.052-5.07c-.105.564-.213 1.127-.325 1.69H2.332c-.112-.563-.22-1.126-.325-1.69zm.826-5.07c-.08.564-.163 1.127-.25 1.69H1.431c-.088-.563-.171-1.126-.25-1.69zm.605-5.072c-.055.565-.114 1.129-.177 1.691H.753c-.063-.562-.122-1.126-.177-1.691zm.389-5.07c-.032.565-.067 1.128-.106 1.69H.293c-.04-.562-.074-1.125-.106-1.69zm.175-5.07c-.007.564-.02 1.128-.035 1.69H.047C.016 122.258 0 121.131 0 120l.014 1.69zm-.035-5.072c.031 1.123.047 2.25.047 3.381l-.014-1.691H.012c.007-.564.02-1.128.035-1.69zm-.246-5.07c.04.562.074 1.125.106 1.69H.187c.032-.565.067-1.128.106-1.69zm-.46-5.071c.063.562.122 1.126.177 1.691H.576c.055-.565.114-1.129.177-1.691zm-.679-5.07c.088.562.171 1.125.25 1.69H1.182c.08-.565.163-1.128.25-1.69zm-.9-5.07c.112.562.22 1.125.325 1.69H2.007c.105-.565.213-1.128.325-1.69zm-1.13-5.07c.138.561.272 1.125.403 1.69H3.059c.13-.565.265-1.129.403-1.69zm-1.365-5.072c.165.562.325 1.125.482 1.69H4.345c.157-.565.317-1.128.482-1.69zm-1.61-5.07c.192.56.38 1.124.564 1.689H5.873c.184-.565.372-1.128.564-1.69zm-1.865-5.071c.221.561.438 1.124.651 1.69H7.651c.213-.566.43-1.129.65-1.69zm-2.133-5.07c.252.56.5 1.124.742 1.69H9.693c.243-.566.49-1.13.742-1.69zm-2.416-5.071c.284.56.563 1.124.838 1.69H12.013c.275-.566.554-1.13.838-1.69zm-2.72-5.07c.319.56.633 1.124.942 1.69H14.63c.31-.566.623-1.13.941-1.69zm-3.046-5.071c.356.56.707 1.123 1.053 1.69H17.564c.346-.567.697-1.13 1.053-1.69zm-3.401-5.069c.396.56.788 1.123 1.175 1.69H20.843c.387-.567.779-1.13 1.175-1.69zm-3.798-5.072c.442.56.88 1.123 1.312 1.69H24.504c.433-.567.87-1.13 1.312-1.69zm-4.239-5.069c.493.558.982 1.121 1.465 1.689H28.59c.483-.568.972-1.13 1.465-1.689zm-4.75-5.073c.553.558 1.101 1.122 1.644 1.69H33.161c.543-.568 1.09-1.132 1.645-1.69zm-5.347-5.07c.625.557 1.243 1.12 1.856 1.69H38.296c.613-.57 1.231-1.133 1.856-1.69zm-6.07-5.067c.71.555 1.415 1.117 2.112 1.687H44.11c.697-.57 1.401-1.132 2.112-1.687zm-7.005-5.074c.826.554 1.644 1.118 2.455 1.691H50.772c.81-.573 1.629-1.137 2.455-1.691zm-8.255-5.068c.983.55 1.957 1.113 2.922 1.69H58.56c.965-.577 1.939-1.14 2.922-1.69zm-10.164-5.07c1.231.542 2.452 1.105 3.662 1.688H67.984c1.21-.583 2.43-1.146 3.662-1.689zm-13.738-5.073c1.747.526 3.478 1.09 5.19 1.692H80.194c1.713-.602 3.444-1.166 5.19-1.692zM120 0c6.872 0 13.61.578 20.166 1.687H99.834C106.391.577 113.128 0 120 0z"/>
                <circle cx="168" cy="167" r="120" stroke="#CBD8AA" stroke-width=".75"/>
            </g>
        </g>
    </g>
</svg>
