<svg xmlns="http://www.w3.org/2000/svg" width="845" height="120" viewBox="0 0 845 120">
    <g fill="none" fill-rule="evenodd">
        <g fill="#F6F9F1" fill-rule="nonzero" stroke="#F6F9F1">
            <path d="M434.88 1219v-41.28h34.88V1219h37.76v-112h-37.76v39.68h-34.88V1107h-37.76v112h37.76zm153.6 2.56c12.053 0 22.88-2.507 32.48-7.52 9.6-5.013 17.12-11.973 22.56-20.88 5.44-8.907 8.16-18.96 8.16-30.16s-2.72-21.253-8.16-30.16c-5.44-8.907-12.96-15.867-22.56-20.88-9.6-5.013-20.427-7.52-32.48-7.52-12.053 0-22.88 2.507-32.48 7.52-9.6 5.013-17.12 11.973-22.56 20.88-5.44 8.907-8.16 18.96-8.16 30.16s2.72 21.253 8.16 30.16c5.44 8.907 12.96 15.867 22.56 20.88 9.6 5.013 20.427 7.52 32.48 7.52zm0-30.56c-4.693 0-8.933-1.147-12.72-3.44-3.787-2.293-6.8-5.547-9.04-9.76-2.24-4.213-3.36-9.147-3.36-14.8 0-5.653 1.12-10.587 3.36-14.8 2.24-4.213 5.253-7.467 9.04-9.76 3.787-2.293 8.027-3.44 12.72-3.44 4.693 0 8.933 1.147 12.72 3.44 3.787 2.293 6.8 5.547 9.04 9.76 2.24 4.213 3.36 9.147 3.36 14.8 0 5.653-1.12 10.587-3.36 14.8-2.24 4.213-5.253 7.467-9.04 9.76-3.787 2.293-8.027 3.44-12.72 3.44zm117.76 28v-50.88L748.8 1219h31.04v-112h-36.8v50.88L700.48 1107h-31.04v112h36.8zm188.96 0v-28.48h-56v-14.72h47.36v-27.2H839.2v-13.12h53.92V1107h-91.04v112h93.12zm60.32 2.56c11.2 0 20.72-1.68 28.56-5.04 7.84-3.36 13.733-7.893 17.68-13.6 3.947-5.707 5.92-12.08 5.92-19.12 0-8.107-2.16-14.507-6.48-19.2s-9.413-8.08-15.28-10.16c-5.867-2.08-13.067-3.92-21.6-5.52-6.613-1.28-11.36-2.48-14.24-3.6-2.88-1.12-4.32-2.8-4.32-5.04 0-4.693 4.853-7.04 14.56-7.04 9.813 0 20.213 2.773 31.2 8.32h0l11.36-27.36c-5.653-3.2-12.187-5.627-19.6-7.28-7.413-1.653-14.96-2.48-22.64-2.48-11.2 0-20.72 1.653-28.56 4.96s-13.733 7.84-17.68 13.6c-3.947 5.76-5.92 12.16-5.92 19.2 0 8.107 2.133 14.533 6.4 19.28 4.267 4.747 9.28 8.16 15.04 10.24s12.96 4.027 21.6 5.84c6.72 1.387 11.547 2.667 14.48 3.84s4.4 2.933 4.4 5.28c0 2.027-1.12 3.547-3.36 4.56-2.24 1.013-5.973 1.52-11.2 1.52-6.08 0-12.427-.933-19.04-2.8-6.613-1.867-12.587-4.347-17.92-7.44h0l-12.16 27.52c5.653 3.52 12.88 6.32 21.68 8.4 8.8 2.08 17.84 3.12 27.12 3.12zm129.44-2.56v-82.72h32.8V1107H1014.4v29.28h32.8V1219h37.76zm113.12 0v-40.64l42.24-71.36h-36.48l-23.04 38.72-22.88-38.72h-39.84l42.24 70.88V1219h37.76z" transform="translate(-396 -1103)"/>
        </g>
    </g>
</svg>
