<svg xmlns="http://www.w3.org/2000/svg" width="64" height="64" viewBox="0 0 64 64">
    <g fill="none" fill-rule="evenodd">
        <g>
            <g>
                <g>
                    <g>
                        <g fill="#000" fill-rule="nonzero">
                            <path d="M51.1 8.4H40.6V4.699C40.6 2.109 38.491 0 35.901 0H20.1C17.509 0 15.4 2.109 15.4 4.699V8.4H4.9C2.196 8.4 0 10.596 0 13.3v30.8c0 .385.315.7.7.7h2.8c.385 0 .7-.315.7-.7V13.3c0-.385.315-.7.7-.7h14.7V4.699c0-.28.227-.499.499-.499H35.9c.28 0 .499.228.499.499V12.6h14.7c.385 0 .7.315.7.7v30.8c0 .385.315.7.7.7h2.8c.385 0 .7-.315.7-.7V13.3c0-2.704-2.196-4.9-4.9-4.9z" transform="translate(-192 -685) translate(160 165) translate(0 488) translate(32 32) translate(4 10)"/>
                        </g>
                        <path fill="#1FAA39" d="M47.75 46.4c.578 0 1.05.473 1.05 1.05v3.5c0 .578-.472 1.05-1.05 1.05h-3.5c-.578 0-1.05-.472-1.05-1.05v-3.5c0-.578.472-1.05 1.05-1.05zm-14 0c.578 0 1.05.473 1.05 1.05v3.5c0 .578-.472 1.05-1.05 1.05h-3.5c-.578 0-1.05-.472-1.05-1.05v-3.5c0-.578.473-1.05 1.05-1.05zm-14 0c.578 0 1.05.473 1.05 1.05v3.5c0 .578-.473 1.05-1.05 1.05h-3.5c-.578 0-1.05-.472-1.05-1.05v-3.5c0-.578.473-1.05 1.05-1.05zm28-14c.578 0 1.05.473 1.05 1.05v3.5c0 .578-.472 1.05-1.05 1.05h-3.5c-.578 0-1.05-.472-1.05-1.05v-3.5c0-.578.472-1.05 1.05-1.05zm-14 0c.578 0 1.05.473 1.05 1.05v3.5c0 .578-.472 1.05-1.05 1.05h-3.5c-.578 0-1.05-.472-1.05-1.05v-3.5c0-.578.473-1.05 1.05-1.05zm-14 0c.578 0 1.05.473 1.05 1.05v3.5c0 .578-.473 1.05-1.05 1.05h-3.5c-.578 0-1.05-.472-1.05-1.05v-3.5c0-.578.473-1.05 1.05-1.05zM32.875 17c.289 0 .525.236.525.525V19.8h2.275c.289 0 .525.236.525.525v1.75c0 .289-.236.525-.525.525H33.4v2.275c0 .289-.236.525-.525.525h-1.75c-.289 0-.525-.236-.525-.525V22.6h-2.275c-.289 0-.525-.236-.525-.525v-1.75c0-.289.236-.525.525-.525H30.6v-2.275c0-.289.236-.525.525-.525z" transform="translate(-192 -685) translate(160 165) translate(0 488) translate(32 32)"/>
                    </g>
                </g>
            </g>
        </g>
    </g>
</svg>
