<svg xmlns="http://www.w3.org/2000/svg" width="64" height="64" viewBox="0 0 64 64">
    <g fill="none" fill-rule="evenodd">
        <g>
            <g>
                <g>
                    <g>
                        <g fill="#000" fill-rule="nonzero">
                            <path d="M50.796 8.845L29.147.388c-1.332-.517-2.829-.517-4.16 0L3.337 8.845C1.32 9.627 0 11.477 0 13.528c0 20.983 12.91 35.486 24.975 40.2 1.33.519 2.83.519 4.16 0 9.664-3.773 24.987-16.807 24.987-40.2 0-2.05-1.319-3.9-3.326-4.683zm-23.735 40.2c-10.993-4.29-21.649-17.62-21.649-35.517l21.65-8.457 21.648 8.457c0 18.372-11.095 31.395-21.649 35.518z" transform="translate(-576 -685) translate(160 165) translate(384 488) translate(32 32) translate(5.333 5.003)"/>
                        </g>
                        <path fill="#1FAA39" d="M32.395 48.298V15.571l-16.113 6.29c.947 12.283 7.351 21.416 16.113 26.437z" transform="translate(-576 -685) translate(160 165) translate(384 488) translate(32 32)"/>
                    </g>
                </g>
            </g>
        </g>
    </g>
</svg>
