<svg xmlns="http://www.w3.org/2000/svg" width="64" height="64" viewBox="0 0 64 64">
    <g fill="none" fill-rule="evenodd" opacity=".402">
        <g>
            <g>
                <g>
                    <g>
                        <g>
                            <g>
                                <path fill="#2C2C2C" fill-rule="nonzero" d="M52.648 17.552L48.052 6.056C46.589 2.397 43.064 0 39.146 0H18.454c-3.917 0-7.443 2.397-8.906 6.056L4.951 17.552C1.964 19.648 0 23.122 0 27.065V43.5c0 1.601 1.29 2.9 2.88 2.9H4.8c1.59 0 2.88-1.299 2.88-2.9v-2.9h42.24v2.9c0 1.601 1.29 2.9 2.88 2.9h1.92c1.59 0 2.88-1.299 2.88-2.9V27.067c0-3.946-1.964-7.42-4.952-9.515zm-37.756-9.33C15.48 6.752 16.878 5.8 18.454 5.8h20.692c1.576 0 2.974.951 3.562 2.423l2.896 7.242H11.996l2.896-7.242zM51.84 32.868c0 1.065-.862 1.933-1.92 1.933H7.68c-1.058 0-1.92-.868-1.92-1.933v-5.8c0-3.199 2.584-5.8 5.76-5.8h34.56c3.176 0 5.76 2.601 5.76 5.8v5.8z" transform="translate(-192 -413) translate(160 165) translate(0 216) translate(32 32) translate(3.2 8.8)"/>
                                <path fill="#1FAA39" d="M13.44 24.165c-2.304 0-3.84 1.542-3.84 3.856s1.536 3.856 3.84 3.856 5.76.386 5.76-1.928c0-2.313-3.456-5.784-5.76-5.784zM44.16 24.165c-2.304 0-5.76 3.47-5.76 5.784 0 2.314 3.456 1.928 5.76 1.928S48 30.335 48 28.021c0-2.313-1.536-3.856-3.84-3.856z" transform="translate(-192 -413) translate(160 165) translate(0 216) translate(32 32) translate(3.2 8.8)"/>
                            </g>
                        </g>
                    </g>
                </g>
            </g>
        </g>
    </g>
</svg>
