<svg xmlns="http://www.w3.org/2000/svg" width="64" height="64" viewBox="0 0 64 64">
    <g fill="none" fill-rule="evenodd">
        <g>
            <g>
                <g>
                    <g>
                        <path fill="#2C2C2C" d="M8.667 52.312V11.696h15.555v10.156c-.002.623.244 1.22.682 1.66.438.44 1.032.686 1.652.684h8.097c2.031-.976 4.278-1.568 6.68-1.568V19.89c-.002-1.246-.494-2.44-1.37-3.32l-8.157-8.194c-.874-.88-2.06-1.375-3.296-1.377H8.667C6.089 7.009 4.004 9.108 4 11.696v40.616C4 54.902 6.09 57 8.667 57h28c1.982-.005 3.744-1.27 4.39-3.154-2.215-.044-4.395-.567-6.39-1.534h-26zm20.222-40.234l7.399 7.43h-7.399v-7.43z" transform="translate(-960 -685) translate(160 165) translate(768 488) translate(32 32)"/>
                        <path fill="#1FAA39" d="M32.53 29.41c4.54-4.56 11.787-4.903 16.733-.793 4.946 4.11 5.968 11.324 2.36 16.657l7.922 7.955c.607.61.607 1.598 0 2.208l-1.1 1.106c-.607.61-1.591.61-2.199 0l-7.921-7.955c-5.31 3.624-12.492 2.596-16.583-2.372-4.092-4.968-3.75-12.247.789-16.806zm8.803 1.027c-4.295 0-7.777 3.498-7.777 7.813 0 4.315 3.482 7.812 7.777 7.812 4.294-.005 7.773-3.5 7.778-7.812 0-4.315-3.482-7.813-7.778-7.813z" transform="translate(-960 -685) translate(160 165) translate(768 488) translate(32 32)"/>
                    </g>
                </g>
            </g>
        </g>
    </g>
</svg>
