<svg xmlns="http://www.w3.org/2000/svg" width="64" height="64" viewBox="0 0 64 64">
    <g fill="none" fill-rule="evenodd">
        <g>
            <g>
                <g>
                    <g>
                        <g fill="#2C2C2C">
                            <path d="M34.125 5.4c-2.193 2.036-4.174 4.176-5.929 6.325C25.321 7.765 21.756 3.747 17.719 0 7.355 9.616 0 22.144 0 29.7 0 43.12 10.577 54 23.625 54S47.25 43.12 47.25 29.7c0-5.618-5.482-17.206-13.125-24.3zm-10.5 43.538c-10.236 0-18.563-8.631-18.563-19.238 0-4.785 4.673-14.05 12.674-22.58 2.356 2.464 4.516 5.033 6.364 7.58l3.862 5.319 4.156-5.093c.615-.754 1.25-1.492 1.9-2.212 4.888 6.055 8.17 13.697 8.17 16.986 0 10.607-8.327 19.238-18.563 19.238z" transform="translate(-576 -413) translate(160 165) translate(384 216) translate(32 32) translate(9 5)"/>
                        </g>
                        <path fill="#1FAA39" d="M42.061 30.646l-5.41 6.172S28.169 25.986 27.53 25.25c-4.474 5.364-6.718 8.503-6.718 12.067 0 7.153 5.418 11.558 12.077 11.558 2.664 0 5.128-.83 7.127-2.229 4.544-3.178 5.61-9.342 3.086-14.158-.31-.592-.658-1.21-1.04-1.842z" transform="translate(-576 -413) translate(160 165) translate(384 216) translate(32 32)"/>
                    </g>
                </g>
            </g>
        </g>
    </g>
</svg>
