<svg xmlns="http://www.w3.org/2000/svg" width="128" height="112" viewBox="0 0 128 112">
    <g fill="none" fill-rule="evenodd">
        <g>
            <g>
                <g fill="#F6F9F1" transform="translate(-872 -444) translate(872 444)">
                    <circle cx="40" cy="40" r="40"/>
                </g>
                <g>
                    <path fill="#2C2C2C" d="M95.394 88.588L74.53 67.724c-.396-.396-.911-.602-1.461-.602H70.8c5.414-6.273 8.697-14.437 8.697-23.374C79.497 24.001 63.496 8 43.748 8 24.001 8 8 24 8 43.748c0 19.748 16 35.749 35.748 35.749 8.937 0 17.101-3.283 23.374-8.697v2.269c0 .55.224 1.065.602 1.46l20.864 20.865c.808.808 2.114.808 2.922 0l3.884-3.884c.808-.808.808-2.114 0-2.922zM43.748 71.247c-15.193 0-27.498-12.306-27.498-27.499S28.555 16.25 43.748 16.25c15.193 0 27.499 12.305 27.499 27.498 0 15.193-12.306 27.499-27.499 27.499z" transform="translate(-872 -444) translate(872 444) translate(24 8)"/>
                    <path fill="#1FAA39" fill-rule="nonzero" d="M43.34 52.289c2.95 0 5.35 2.402 5.35 5.355 0 2.953-2.4 5.356-5.35 5.356-2.95 0-5.35-2.403-5.35-5.356s2.4-5.355 5.35-5.355zM44.078 25C50.328 25 57 29.884 57 36.323c0 8.55-9.225 8.682-9.225 11.842v.808c0 .845-.684 1.53-1.528 1.53h-5.814c-.844 0-1.529-.685-1.529-1.53V47.87c0-4.558 3.452-6.38 6.06-7.844 2.237-1.256 3.608-2.11 3.608-3.772 0-2.2-2.802-3.659-5.067-3.659-2.954 0-4.317 1.4-6.234 3.822-.517.652-1.46.774-2.123.27l-3.544-2.69c-.65-.494-.796-1.411-.337-2.087C34.277 27.485 38.11 25 44.078 25z" transform="translate(-872 -444) translate(872 444) translate(24 8)"/>
                </g>
            </g>
        </g>
    </g>
</svg>
