<svg xmlns="http://www.w3.org/2000/svg" width="24" height="24" viewBox="0 0 24 24">
    <g fill="none" fill-rule="evenodd">
        <g fill="">
            <g>
                <path d="M3.063 16.846c-1.14 0-2.063.93-2.063 2.077C1 20.07 1.923 21 3.063 21c1.139 0 2.062-.93 2.062-2.077 0-1.147-.923-2.077-2.063-2.077zm0-6.923C1.923 9.923 1 10.853 1 12c0 1.147.923 2.077 2.063 2.077 1.139 0 2.062-.93 2.062-2.077 0-1.147-.923-2.077-2.063-2.077zm0-6.923C1.923 3 1 3.93 1 5.077c0 1.147.923 2.077 2.063 2.077 1.139 0 2.062-.93 2.062-2.077C5.125 3.93 4.202 3 3.062 3zm19.25 1.038H8.563c-.38 0-.688.31-.688.693v.692c0 .382.308.692.688.692h13.75c.38 0 .687-.31.687-.692v-.692c0-.383-.308-.693-.688-.693zm0 6.924H8.563c-.38 0-.688.31-.688.692v.692c0 .383.308.692.688.692h13.75c.38 0 .687-.31.687-.692v-.692c0-.383-.308-.692-.688-.692zm0 6.923H8.563c-.38 0-.688.31-.688.692v.692c0 .383.308.693.688.693h13.75c.38 0 .687-.31.687-.693v-.692c0-.382-.308-.692-.688-.692z" transform="translate(-1216 -252) translate(1216 252)"/>
            </g>
        </g>
    </g>
</svg>
