<svg xmlns="http://www.w3.org/2000/svg" width="160" height="164" viewBox="0 0 160 164">
    <g fill="none" fill-rule="evenodd">
        <g fill="#1FAA39">
            <path d="M712.3 1342.977l11.576.207-.287 16.816-11.059-.198.052-3.07 7.47.134.062-3.574-5.138-.092.053-3.07 5.092.09.068-3.963-7.942-.141.053-3.139zm22.052-1.658c.896-.237 1.704-.322 2.416-.26s1.37.28 1.97.647c.2.112.411.257.636.438.224.18.45.43.68.749.235.318.462.744.687 1.28.222.533.433 1.21.635 2.032l1.17 4.88c.297 1.241.337 2.348.124 3.32-.21.972-.677 1.789-1.39 2.455-.715.666-1.682 1.155-2.893 1.472-.315.086-.677.149-1.085.191-.403.043-.83.04-1.276-.013-.446-.051-.89-.176-1.324-.372-.416-.2-.776-.46-1.079-.775-.297-.318-.55-.666-.758-1.043-.207-.376-.378-.758-.509-1.138-.137-.379-.248-.734-.334-1.063l3.424-.888c.039.163.096.35.165.563.07.217.16.431.275.644.112.219.255.407.428.573.172.168.383.285.63.353.249.065.544.055.881-.029.143-.037.29-.095.437-.175.147-.078.285-.177.413-.287.13-.115.236-.242.327-.382.137-.227.22-.46.25-.698.031-.234.032-.463.004-.674-.031-.21-.064-.394-.103-.544l-1.477-6.16c-.04-.182-.095-.383-.16-.604-.068-.222-.158-.44-.272-.657-.114-.213-.261-.401-.44-.562-.18-.16-.406-.27-.672-.326-.27-.057-.592-.038-.97.055-.463.125-.798.345-1.008.662-.209.311-.317.703-.321 1.169-.009.471.06.998.205 1.58l-3.446.894c-.065-.288-.115-.526-.151-.71-.038-.187-.068-.347-.089-.478-.019-.129-.036-.26-.047-.387-.015-.125-.026-.28-.04-.45-.011-.17-.015-.372-.01-.604.006-.231.03-.493.081-.776.053-.283.145-.589.282-.917.136-.325.334-.665.591-1.021.223-.304.482-.567.77-.794.284-.226.577-.42.878-.575.297-.16.58-.288.842-.383.26-.099.48-.167.653-.212zm-45.446-5.76c.373-.013.75.026 1.129.12.38.09.775.222 1.182.398.412.172.85.375 1.316.61l4.781 2.354-7.209 14.926-4.883-2.404c-.429-.208-.835-.425-1.224-.653-.392-.231-.745-.476-1.06-.74-.312-.264-.568-.554-.77-.867-.254-.406-.417-.835-.49-1.285-.074-.452-.07-.907.01-1.363.077-.454.217-.893.419-1.31.294-.601.64-1.084 1.036-1.448.397-.362.815-.61 1.257-.74.44-.127.875-.14 1.306-.04l.05-.102c-.237-.159-.454-.382-.65-.672-.198-.29-.348-.634-.448-1.03-.105-.396-.132-.838-.08-1.325.05-.483.204-1.002.467-1.552.173-.368.377-.721.607-1.06.234-.338.52-.646.86-.919.335-.272.748-.496 1.235-.668.396-.14.784-.218 1.16-.23zm66.22-2.808l7.598 14.918-3.003 1.667-7.235-4.925c-.16-.11-.332-.233-.51-.37-.18-.133-.347-.259-.495-.376-.046-.032-.114-.093-.212-.178-.098-.085-.194-.17-.287-.253-.097-.085-.167-.137-.206-.168l-.097.054.842 1.461c.141.243.26.443.348.599.09.152.166.286.226.394.058.108.113.217.17.32l.185.362 2.824 5.547-2.885 1.604-7.596-14.92 2.575-1.427 7.485 5.124c.12.081.225.154.316.22.092.065.191.138.289.213.097.076.218.175.36.29.144.118.319.267.538.45l.822.69.098-.053c-.048-.087-.124-.218-.224-.399-.103-.177-.214-.38-.34-.6-.126-.226-.252-.447-.375-.67-.125-.222-.234-.422-.327-.595l-.055-.1-.09-.166-.064-.12-3.56-6.99 2.886-1.603zm-68.086 12.524c-.33-.01-.615.092-.864.304-.246.211-.483.552-.705 1.02-.212.45-.307.836-.29 1.155.017.318.106.58.265.793.157.212.342.387.553.519.207.132.4.24.575.317l1.473.726 1.827-3.782c-.648-.324-1.199-.578-1.657-.767-.46-.183-.851-.28-1.177-.285zm-12.778-21.483l3 2.582-1.925 7.316.926.796 4.309-5.265 2.726 2.346-10.542 12.882-4.064-3.496c-.413-.351-.822-.732-1.22-1.146-.395-.414-.738-.86-1.03-1.334-.29-.48-.482-.988-.577-1.534-.097-.547-.05-1.129.138-1.746.188-.616.56-1.273 1.12-1.962.444-.548.928-.98 1.448-1.295.523-.312 1.096-.482 1.717-.507.622-.023 1.298.127 2.036.445l1.938-8.082zm15.908 14.916c-.384-.008-.733.104-1.057.334-.319.23-.606.6-.85 1.105-.12.239-.21.497-.277.765-.065.271-.079.54-.038.811.039.271.162.526.36.762.129.138.332.288.604.457.272.168.592.342.952.528.356.183.733.37 1.12.559l2.023-4.19-1.614-.794c-.431-.217-.838-.324-1.223-.337zm-17.897-3.916c-.377-.14-.703-.176-.986-.115-.28.063-.531.19-.754.378-.218.19-.422.404-.611.645-.36.442-.575.847-.636 1.207-.062.36.003.71.196 1.046.07.13.155.252.252.37.092.12.22.255.375.405.153.15.355.334.61.553.248.22.566.491.949.82l2.915-3.56c-.387-.333-.7-.603-.948-.812-.243-.208-.445-.373-.601-.492-.156-.118-.29-.21-.406-.279-.113-.063-.232-.12-.355-.166zm96.35-13.619l7.419 15.458-3.196 2.954-14.286-9.114 2.574-2.377 2.757 1.89 3.687-3.407-1.528-3.025 2.572-2.379zm.338 7.928l-2.706 2.497 6.218 4.347.066-.06-3.578-6.784zm-105.49-15.367c.506-.108 1.007-.133 1.51-.07.502.062.963.192 1.373.388.415.195.786.423 1.11.687.33.262.613.53.852.804.242.27.439.514.594.736.196.263.384.573.565.92.182.353.335.731.452 1.144.122.41.189.84.201 1.293.012.453-.054.91-.199 1.384-.143.467-.392.937-.741 1.4-.251.333-.525.644-.831.94-.302.3-.597.567-.885.803-.284.235-.529.422-.728.568l-3.589 2.613c-.456.337-.926.629-1.41.878-.485.25-.988.436-1.509.555-.518.122-1.064.15-1.628.09-.514-.058-.994-.201-1.444-.426-.448-.222-.86-.509-1.242-.854-.38-.348-.723-.731-1.027-1.157-.337-.459-.615-.932-.84-1.414-.226-.484-.38-.982-.46-1.492-.078-.51-.068-1.034.034-1.565.083-.443.243-.888.488-1.33.245-.443.594-.897 1.049-1.369.452-.47 1.035-.964 1.75-1.483l3.24-2.361c.624-.454 1.206-.822 1.75-1.1.54-.28 1.064-.474 1.564-.582zm1.62 3.393l-.153.002c-.255.012-.506.069-.754.174-.248.107-.48.233-.705.378-.222.149-.43.291-.616.431l-4.645 3.383c-.238.168-.471.346-.695.543-.227.193-.407.412-.54.656-.138.24-.187.513-.156.815.03.304.185.652.46 1.039.238.321.484.547.741.676.252.13.505.191.756.184.249-.007.487-.056.714-.14.223-.09.423-.188.603-.3.173-.113.317-.209.424-.29l4.646-3.383c.474-.339.86-.684 1.161-1.03.297-.345.464-.708.499-1.088.04-.38-.098-.79-.41-1.225-.232-.314-.474-.534-.724-.66-.249-.126-.501-.18-.76-.163zm111.395-9.332l14.253 8.28-2.66 4.64c-.268.47-.564.941-.892 1.408-.332.465-.7.881-1.107 1.254-.411.37-.869.648-1.377.835-.51.19-1.08.242-1.707.161-.627-.081-1.324-.338-2.088-.778-.606-.349-1.105-.755-1.5-1.22-.392-.466-.656-1.007-.789-1.619-.13-.615-.105-1.313.076-2.1l-8.128-.546 1.965-3.425 7.387.664.607-1.058-5.825-3.384 1.785-3.112zm6.312 7.815c-.253.442-.459.8-.616 1.083-.16.276-.283.505-.369.682-.088.174-.154.324-.2.45-.04.123-.075.252-.097.382-.07.398-.048.728.06 1 .109.268.276.496.496.684.222.185.463.353.728.498.49.284.916.427 1.275.426.359 0 .685-.124.974-.373.112-.091.216-.197.313-.315.1-.11.207-.262.324-.441.12-.18.261-.41.427-.7.168-.286.376-.648.627-1.085zm-31.992-65.045c.42.204 1.07.538 1.853 1.007h-23.065v.75h24.252c.406.273.832.574 1.266.904h-25.518v.751h26.462c.37.312.745.644 1.115.996h-27.577v.751h28.33c.365.383.722.786 1.066 1.21l-29.393.026v.731h4.615l25.357-.007c.207.283.409.575.603.875l-25.96-.078v.002l-4.615-.015v.842h-.003v19.126h29.123c-.247.39-.505.782-.78 1.18h-28.343v.752h27.812c-.194.267-.392.539-.6.812h-27.212v.751h26.553c-.31.39-.63.782-.965 1.18h-25.588v.75h4.618l20.623-.01 1.168.996-21.79.01h-4.619v.752h27.134c.292.244.605.514.928.811h-28.062v.752h28.847c.337.337.682.7 1.026 1.087h-29.873v.753h30.512c.283.344.564.707.835 1.086l-26.729-.067v.003l-4.618-.015v18.504l4.618-.01v.003l13.604-.027v-.002l14.645-.029c-.192.404-.396.813-.622 1.225h-32.245v.898l4.618-.001v.001l27.412-.008c-.21.36-.46.73-.696 1.095h-31.334v.831h.003v-.002l30.748.02c-.24.325-.574.798-.8 1.07h-29.95v.744h.002l29.174.014c-.315.38-.572.664-.934 1.074l-23.625-.01v.002l-5.538-.003v-.005l-46.528.015v-2.212c0-.279 6.894-1.018 6.895-5.952l.02-48.04c0-3.514-2.303-5.479-7.118-5.877v-2.767h46.734v-.005zm-89.082 53l1.305 3.486-15.195 5.98-1.305-3.486 15.195-5.98zm123.507-11.03l.264.006c.44.027.857.088 1.258.184.403.093.78.197 1.138.312l10.22 3.162-1.1 3.642-10.414-3.221c-.194-.065-.417-.124-.673-.188-.252-.062-.522-.102-.8-.116-.282-.017-.555.019-.824.102-.268.084-.512.243-.731.474-.218.23-.397.56-.53.988-.046.138-.088.303-.128.501-.035.196-.042.41-.016.639.029.231.118.467.269.703.148.238.392.472.724.694.33.222.783.42 1.356.602l10.435 3.228-1.075 3.556-10.456-3.235c-.196-.057-.429-.137-.706-.234-.276-.1-.576-.226-.888-.383-.318-.153-.632-.346-.942-.57-.312-.223-.6-.49-.86-.8-.263-.31-.477-.666-.644-1.076-.269-.694-.39-1.404-.375-2.13.016-.728.138-1.457.363-2.19.17-.564.385-1.106.643-1.621.258-.518.555-.978.89-1.388.335-.409.703-.731 1.106-.969.476-.27.947-.455 1.409-.554.465-.099.915-.134 1.35-.112zm-22.008 14.222c-.1.314-.206.63-.325.95l-11.475.08c.185-.303.35-.647.498-1.028l11.302-.002zm-60.613-17.886V1289.44l.002.766v.599l.001.32.001 1.386v2.569c-.003 1.674-.008 3.145-.018 3.656-.223 10.672 15.89 11.43 15.969.423l.071-9.866c-1.867 2.202-4.688 3.607-7.844 3.607-3.354 0-6.329-1.586-8.182-4.03zm-44.405 5.299l1.537 4.103-5.932 8.26-9.096-1.835-1.409-3.763 8.863 1.976 6.037-8.741zm105.598 10.748c-.088.36-.186.722-.298 1.088l-11.328.01c.103-.346.195-.713.276-1.098h11.35zm.364-1.654c-.05.297-.105.598-.171.903H752.59c.048-.294.087-.596.12-.903h11.457zm.205-1.656c-.023.299-.052.6-.092.904h-11.5c.022-.297.038-.6.047-.904h11.545zm.035-2.023c.02.417.023.84.008 1.272H752.84c0-.42-.008-.84-.03-1.263v-.009h11.598zm-.16-1.655c.045.297.081.6.11.903H752.84c0-.306-.012-.607-.04-.903h11.447zm-.387-1.84c.097.357.182.72.256 1.09h-11.414c-.063-.376-.146-.738-.245-1.09h11.403zm-.544-1.654c.115.296.222.596.321.903h-11.42c-.042-.117-.086-.231-.13-.344-.054-.189-.11-.377-.17-.559h11.4zm-.736-1.655c.148.295.292.596.428.903h-11.362c-.124-.315-.259-.618-.403-.903h11.337zm-1.12-1.931c.248.378.49.772.719 1.18h-11.367c-.297-.46-.629-.855-.992-1.172l-.02-.008h11.66zm-105.074-12.312l.8 11.846-16.268 1.177-.766-11.319 2.97-.214.516 7.644 3.459-.25-.356-5.257 2.97-.214.353 5.211 3.834-.278-.55-8.127 3.038-.219zm130.189-3.482l1.688 2.995c-.47.182-.874.424-1.22.722-.344.298-.617.647-.814 1.048-.196.398-.311.841-.335 1.327-.014.209.003.442.042.703.042.258.126.51.246.756.124.248.302.454.534.623.23.166.53.264.896.288.298.02.555-.015.766-.105.212-.092.404-.253.581-.486.177-.235.361-.558.554-.97.198-.41.427-.927.69-1.548.264-.636.553-1.231.861-1.79.309-.56.67-1.051 1.081-1.474.41-.423.904-.744 1.476-.968.576-.22 1.26-.314 2.054-.275.67.037 1.281.199 1.825.476.547.278 1.014.663 1.4 1.16.388.498.675 1.095.865 1.794.19.695.265 1.481.224 2.358-.04.83-.185 1.58-.436 2.252-.25.665-.605 1.266-1.065 1.802-.458.532-1.025 1.012-1.695 1.436l-1.626-2.9c.337-.159.65-.377.937-.656.287-.274.525-.598.705-.967.185-.37.29-.775.316-1.217.015-.386-.016-.709-.1-.962-.079-.256-.186-.459-.324-.606-.136-.15-.274-.262-.422-.337-.147-.07-.278-.12-.391-.142-.113-.021-.19-.033-.231-.03-.282-.013-.537.034-.749.147-.216.113-.405.268-.566.469-.161.196-.3.42-.424.67-.123.247-.231.5-.334.758l-.858 2.113c-.136.337-.303.68-.505 1.029-.202.35-.432.677-.69.983-.26.308-.542.567-.849.779-.068.05-.186.124-.353.216-.167.096-.375.189-.627.283-.248.098-.536.172-.86.231-.32.06-.671.08-1.054.063-.19-.004-.45-.032-.779-.081-.334-.05-.696-.158-1.101-.324-.401-.165-.802-.427-1.198-.783-.399-.354-.761-.842-1.085-1.455-.175-.348-.31-.722-.412-1.127-.102-.4-.172-.79-.208-1.172-.035-.38-.048-.718-.033-1.012.033-.745.119-1.418.248-2.019.134-.6.334-1.141.605-1.63.267-.484.629-.93 1.078-1.33.448-.401 1.006-.774 1.672-1.115zm-26.918 1.817c-.15.269-.307.54-.472.813l-13.227-.002c.239 0 .891-.668 1.026-.81h12.673zm-41.093-10.24c-.093-11.486-15.58-11.07-15.968-.013-.012.34-.018.982-.02 1.793l.001.976c.005 2.641.04 6.255.062 7.628 1.687-2.202 4.288-3.696 7.253-3.95.67-.094 1.347-.089 2.03.02 2.686.29 5.084 1.956 6.723 3.883zm41.998 8.493c-.157.329-.32.66-.497.996l-12.523.053c.211-.306.408-.646.593-1.012l12.427-.037zm.717-1.654c-.116.297-.24.598-.374.902H748.49c.118-.288.229-.59.33-.902h12.459zm-117.047-13.014c.608-.152 1.344-.164 2.203-.026.684.107 1.29.311 1.817.608.528.299.963.714 1.3 1.247.338.536.561 1.208.672 2.02l7.707-2.46-.61 3.97-7.062 2.08-.188 1.225 6.58 1.077-.555 3.608-16.096-2.633.824-5.38c.081-.545.188-1.101.327-1.663.143-.563.336-1.093.582-1.596.249-.502.575-.934.978-1.298.405-.367.913-.626 1.521-.779zm117.7 11.082c-.11.387-.234.78-.373 1.179h-12.51c.105-.381.202-.775.287-1.179h12.596zm.377-1.564c-.051.269-.11.539-.178.812h-12.653c.047-.267.088-.538.125-.812h12.706zm33.985-15.314l.836 3.397-6.428 6.05c-.144.133-.302.274-.474.42l-.167.145c-.108.093-.212.181-.31.261-.04.036-.115.092-.22.168l-.31.227c-.103.076-.17.133-.21.166l.028.11 1.586-.495c.265-.082.482-.152.65-.202.168-.054.311-.099.43-.132.115-.034.231-.062.342-.095l.388-.097 5.933-1.499.803 3.264-15.95 4.029-.718-2.911 6.679-6.255c.106-.1.2-.187.284-.262.085-.077.177-.158.274-.237.095-.08.218-.177.363-.292.144-.114.329-.255.556-.429l.299-.231.554-.426-.027-.11-.43.128c-.193.061-.411.123-.652.196-.243.073-.483.146-.723.214-.24.073-.456.134-.644.186-.19.056-.326.094-.414.116l-7.474 1.889-.805-3.264 15.951-4.029zm-33.723 13.475c-.032.358-.074.72-.13 1.089h-12.75c.038-.36.067-.724.087-1.089h12.793zm-116.754-3.968c-.552-.091-.997-.071-1.328.061-.331.133-.588.37-.768.713-.073.128-.13.265-.18.412-.052.143-.098.326-.142.539-.048.214-.097.484-.149.821-.054.332-.118.753-.196 1.26l4.452.727c.077-.51.141-.926.187-1.253.05-.32.083-.582.101-.781.02-.199.027-.365.026-.5-.007-.134-.02-.267-.045-.4-.077-.404-.213-.709-.409-.928-.195-.214-.43-.368-.7-.466-.27-.095-.55-.164-.849-.205zm116.81 2.314c.006.297.004.597-.008.903h-12.817c-.002-.306-.018-.606-.046-.903h12.871zm-.16-1.931c.058.385.103.777.13 1.18h-12.939c-.068-.406-.16-.8-.27-1.18h13.079zm-13.79-1.79l13.42.042c.09.326.17.658.24.997h-13.2c-.136-.363-.29-.71-.46-1.04zm-1.304-1.898l14.079.103c.15.352.288.714.414 1.086l-13.642-.077c-.263-.41-.549-.783-.85-1.112zm13.255-1.553c.168.294.329.595.48.903l-14.586-.132c-.502-.381-1.022-.643-1.534-.761v-.01h15.64zm-109.56-16.62l.586 3.255c-.372.029-.74.121-1.104.277-.362.154-.694.369-.986.646-.297.276-.53.614-.7 1.016-.142.352-.219.661-.222.924-.01.265.026.49.106.675.08.187.174.34.29.46.116.117.224.208.324.269.1.06.17.098.209.111.264.11.52.156.758.127.241-.028.471-.106.69-.234.218-.125.424-.283.622-.47.2-.186.384-.383.566-.585l1.508-1.652c.239-.265.511-.522.817-.773.307-.252.633-.474.98-.667.346-.192.698-.333 1.058-.42.08-.023.218-.05.406-.076.19-.03.417-.042.687-.041.268-.004.564.03.89.089.323.058.663.164 1.02.315.177.068.414.188.71.35.3.162.608.391.937.687.326.294.619.678.876 1.145.261.469.445 1.048.549 1.73.051.382.057.778.02 1.186-.035.407-.1.793-.19 1.158-.091.366-.19.682-.301.95-.278.676-.58 1.269-.9 1.778-.324.51-.692.94-1.11 1.296-.414.354-.903.637-1.459.85-.557.213-1.206.36-1.951.443l-.612-3.365c.507-.005.967-.085 1.394-.24.424-.153.796-.382 1.115-.68.318-.3.572-.67.754-1.111.082-.189.143-.41.192-.665.045-.254.048-.517.016-.788-.037-.271-.137-.526-.301-.763-.164-.235-.414-.43-.755-.583-.274-.124-.53-.181-.758-.172-.23.011-.466.09-.711.245-.246.153-.525.388-.845.7-.322.31-.708.709-1.162 1.19-.46.495-.929.944-1.406 1.353-.476.409-.98.737-1.509.981-.525.248-1.1.37-1.715.376-.618 0-1.298-.153-2.037-.47-.622-.27-1.148-.635-1.572-1.084-.426-.45-.742-.97-.942-1.567-.205-.596-.281-1.25-.23-1.964.048-.71.236-1.463.563-2.26.312-.753.696-1.396 1.154-1.93.459-.527.992-.958 1.603-1.292.609-.33 1.303-.574 2.078-.73zm140.124-1.762l3.153 6.891-1.289.614-.819-1.79-12.142 5.775.82 1.789-1.35.641-3.151-6.892 1.309-.622.81 1.77 12.18-5.795-.81-1.769 1.29-.612zm-90.781 7.469c-1.45.484-3.063.756-4.759.756-1.694 0-3.307-.272-4.757-.756h9.516zm3.246-1.626c-.569.405-1.193.767-1.865 1.078h-12.278c-.673-.311-1.297-.673-1.865-1.078h16.008zm2.09-2.004c-.39.522-.855 1.01-1.382 1.456h-17.424c-.529-.447-.992-.934-1.383-1.456h20.19zm.938-1.644c-.152.376-.34.743-.56 1.096H685.18c-.22-.353-.408-.72-.561-1.096h22.065zm.446-1.828c-.04.436-.124.864-.25 1.28h-22.456c-.128-.416-.211-.844-.25-1.28h22.956zm-.11-1.827c.09.418.135.845.135 1.28h-23.007c0-.435.045-.862.134-1.28h22.739zm-.587-1.644c.182.355.331.722.446 1.097h-22.454c.114-.375.264-.742.445-1.097h21.563zm-1.136-1.643c.312.347.587.714.827 1.096H685.18c.239-.382.515-.749.825-1.096h19.292zm-2.5-2.01c.735.427 1.397.918 1.97 1.461h-18.23c.572-.543 1.234-1.034 1.967-1.46H702.8zm-31.94-20.73l10.73 12.646-2.73 2.43-4.634-5.46-3.503 3.12 4.634 5.461-2.763 2.46-10.729-12.644 2.746-2.446 4.063 4.79 3.47-3.09-4.063-4.79 2.78-2.476zm24.794 18.902c2.235 0 4.321.47 6.089 1.28h-12.177c1.767-.81 3.855-1.28 6.088-1.28zm75.16-17.884l2.71 2.827-1.404 4.505c-.03.09-.079.24-.15.437-.066.202-.143.417-.226.651-.08.237-.156.452-.226.645l-.04.112-.09.252-.02.057.08.082c.172-.066.319-.125.447-.171.124-.05.251-.095.382-.144.133-.046.292-.103.477-.171.19-.068.432-.155.728-.264l4.29-1.563 2.678 2.794-10.314 3.534-4.63 4.828-2.539-2.647 4.537-4.73 3.31-11.034zm-15.864-10.223l10.283 6.098-1.477 2.627-3.497-2.074-6.61 11.76-3.21-1.905 6.609-11.76-3.575-2.12 1.477-2.626zm-68.903.397c.516.003 1.031.094 1.54.279.422.151.835.381 1.233.694.4.312.793.728 1.186 1.255.392.523.79 1.179 1.19 1.968l1.82 3.59c.35.687.621 1.323.812 1.907.189.58.3 1.13.327 1.643.028.52-.027 1.022-.166 1.512-.141.487-.342.924-.598 1.3-.259.382-.541.714-.85.994-.312.286-.621.525-.927.72-.306.199-.577.354-.82.474-.29.154-.625.29-.996.417-.376.124-.77.217-1.197.27-.424.056-.859.054-1.306-.004-.448-.059-.89-.197-1.334-.414-.438-.216-.863-.536-1.265-.957-.289-.3-.553-.623-.798-.971-.248-.347-.464-.682-.652-1.004-.188-.319-.334-.59-.447-.813l-2.014-3.971c-.26-.505-.475-1.018-.645-1.537-.172-.52-.274-1.048-.31-1.584-.04-.534.017-1.08.166-1.63.137-.502.354-.956.644-1.367.29-.41.638-.774 1.038-1.098.401-.324.834-.604 1.302-.839.503-.263 1.013-.464 1.526-.611.512-.148 1.027-.222 1.541-.223zm-.49 3.21c-.304-.018-.672.08-1.097.294-.353.185-.614.395-.782.629-.167.229-.267.47-.302.721-.03.248-.02.493.03.73.052.236.118.452.2.646.084.19.156.348.22.468l2.608 5.14c.258.524.539.96.832 1.315.295.348.628.571.997.665.368.1.794.026 1.272-.215.347-.18.601-.387.764-.615.163-.227.256-.469.281-.727.027-.256.01-.513-.056-.776-.066-.262-.155-.514-.262-.759-.112-.244-.22-.472-.328-.678l-2.609-5.14c-.129-.265-.269-.523-.427-.777-.154-.255-.343-.467-.56-.64-.215-.173-.476-.264-.781-.28zm55.309-8.746c.7-.025 1.458.087 2.27.336.77.24 1.44.563 2.009.974.564.41 1.041.908 1.431 1.494.388.585.7 1.266.934 2.038l-3.122.936c-.068-.375-.196-.74-.387-1.094-.187-.352-.434-.667-.736-.936-.302-.272-.656-.474-1.067-.605-.358-.107-.67-.153-.927-.13-.26.019-.478.078-.65.18-.174.1-.313.212-.42.342-.1.13-.18.25-.227.358-.048.108-.079.182-.087.223-.08.281-.098.545-.044.785.052.242.152.468.302.677.143.208.32.402.523.584.204.183.416.35.633.514l1.773 1.362c.283.216.566.465.843.75.278.286.53.594.754.926.225.333.4.676.524 1.032.03.08.071.217.116.406.049.19.086.42.113.694.03.272.029.578.006.915-.022.335-.09.691-.2 1.07-.05.188-.14.44-.267.759-.128.322-.32.66-.575 1.025-.253.362-.598.7-1.028 1.01-.431.316-.978.562-1.634.74-.368.092-.754.139-1.158.144-.402.006-.786-.018-1.152-.072-.368-.055-.688-.122-.96-.206-.692-.213-1.303-.458-1.835-.73-.531-.278-.992-.606-1.383-.995-.39-.382-.719-.85-.987-1.393-.265-.544-.48-1.19-.637-1.938l3.228-.975c.057.514.184.975.379 1.392.196.415.457.77.784 1.062.328.292.715.512 1.166.653.192.063.416.101.67.124.252.02.51-.004.771-.064.262-.067.5-.195.714-.387.214-.191.38-.465.492-.828.092-.293.12-.557.09-.79-.037-.234-.139-.464-.315-.698-.176-.234-.435-.493-.774-.785-.337-.295-.768-.647-1.285-1.059-.533-.415-1.02-.845-1.471-1.287-.451-.441-.823-.919-1.12-1.433-.297-.51-.476-1.08-.547-1.706-.066-.628.014-1.335.246-2.12.199-.661.5-1.235.894-1.712.396-.48.872-.857 1.433-1.123.563-.27 1.194-.415 1.897-.439zm-32.221-1.979l3.687 16.162-2.879.671-6.038-6.845c-.097-.109-.18-.205-.253-.292-.075-.088-.153-.18-.229-.28-.077-.098-.17-.223-.28-.37-.11-.149-.246-.338-.413-.569-.168-.232-.38-.523-.631-.874l-.11.027.12.436c.055.195.113.417.18.66.068.248.135.491.2.735.066.244.123.462.17.652.052.193.087.33.107.419l1.729 7.574-3.227.754-3.687-16.16 3.357-.785 5.843 6.59c.13.148.266.308.406.485.143.175.276.338.39.489.036.041.089.117.163.225.074.106.147.212.217.316.074.106.128.174.16.213l.11-.025-.46-1.609c-.076-.268-.143-.49-.188-.66-.051-.17-.092-.314-.122-.435-.032-.116-.058-.234-.088-.346-.025-.11-.054-.243-.09-.393l-1.37-6.012 3.226-.753zm9.76-1.119l11.046.593-.158 3.073-7.46-.402-.183 3.576 5.13.276-.157 3.071-5.086-.273-.202 3.966 7.931.427-.16 3.14-11.562-.62.861-16.827z" transform="translate(-640 -1196)"/>
        </g>
    </g>
</svg>
