<svg xmlns="http://www.w3.org/2000/svg" width="40" height="40" viewBox="0 0 40 40">
    <defs>
        <filter id="x51451wqwa">
            <feColorMatrix in="SourceGraphic" values="0 0 0 0 1.000000 0 0 0 0 1.000000 0 0 0 0 1.000000 0 0 0 1.000000 0"/>
        </filter>
    </defs>
    <g fill="none" fill-rule="evenodd">
        <g>
            <g>
                <g>
                    <g>
                        <g filter="url(#x51451wqwa)" transform="translate(-168 -396) translate(20 228) translate(0 64) translate(148 104)">
                            <path fill="#000" fill-rule="nonzero" d="M29.33 18.548L15.138 9.92c-1.274-.71-2.879.202-2.879 1.694v16.774c0 1.484 1.597 2.403 2.88 1.694l14.193-8.146c1.322-.733 1.322-2.645 0-3.387zM40 20C40 8.952 31.048 0 20 0S0 8.952 0 20s8.952 20 20 20 20-8.952 20-20zM3.871 20c0-8.911 7.218-16.129 16.129-16.129 8.911 0 16.129 7.218 16.129 16.129 0 8.911-7.218 16.129-16.129 16.129-8.911 0-16.129-7.218-16.129-16.129z"/>
                        </g>
                    </g>
                </g>
            </g>
        </g>
    </g>
</svg>
