<svg xmlns="http://www.w3.org/2000/svg" width="24" height="24" viewBox="0 0 24 24">
    <g fill="none" fill-rule="evenodd">
        <g fill="#505050">
            <g>
                <path d="M13.803 12l5.45-5.448 1.123-1.124c.165-.166.165-.435 0-.6l-1.203-1.203c-.165-.166-.435-.166-.6 0L12 10.197 5.428 3.624c-.166-.165-.435-.165-.6 0L3.623 4.827c-.165.165-.165.435 0 .6L10.197 12l-6.573 6.573c-.165.165-.165.435 0 .6l1.203 1.203c.165.165.435.165.6 0L12 13.803l5.449 5.45 1.124 1.123c.165.165.435.165.6 0l1.203-1.203c.165-.165.165-.435 0-.6L13.803 12z" transform="translate(-327 -24) translate(327 24)"/>
            </g>
        </g>
    </g>
</svg>
