<svg xmlns="http://www.w3.org/2000/svg" width="24" height="24" viewBox="0 0 24 24">
    <g fill="none" fill-rule="evenodd">
        <g fill="#505050">
            <g>
                <path d="M20.759 6.416H3.24C3.108 6.416 3 6.31 3 6.18v-.944c0-.13.108-.236.241-.236H20.76c.133 0 .241.106.241.236v.944c0 .13-.108.236-.241.236zm0 6.292H3.24c-.133 0-.241-.106-.241-.236v-.944c0-.13.108-.236.241-.236H20.76c.133 0 .241.106.241.236v.944c0 .13-.108.236-.241.236zm0 6.292H3.24C3.108 19 3 18.894 3 18.764v-.944c0-.13.108-.236.241-.236H20.76c.133 0 .241.106.241.236v.944c0 .13-.108.236-.241.236z" transform="translate(-327 -20) translate(327 20)"/>
            </g>
        </g>
    </g>
</svg>
