<svg xmlns="http://www.w3.org/2000/svg" width="16" height="16" viewBox="0 0 16 16">
    <g fill="none" fill-rule="evenodd">
        <g fill="#2C2C2C">
            <g>
                <path d="M14.417 6.833h-5.25v-5.25c0-.322-.261-.583-.584-.583H7.417c-.323 0-.584.261-.584.583v5.25h-5.25c-.322 0-.583.261-.583.584v1.166c0 .323.261.584.583.584h5.25v5.25c0 .322.261.583.584.583h1.166c.323 0 .584-.261.584-.583v-5.25h5.25c.322 0 .583-.261.583-.584V7.417c0-.323-.261-.584-.583-.584z" transform="translate(-235 -366) translate(235 366)"/>
            </g>
        </g>
    </g>
</svg>
