<svg xmlns="http://www.w3.org/2000/svg" width="341" height="472" viewBox="0 0 341 472">
    <g fill="none" fill-rule="evenodd">
        <g>
            <g>
                <path fill="#F6F9F1" d="M0 43.51C46.01 14.502 96.14 0 150.386 0c81.37 0 139.989 21.613 158.47 72.685 18.482 51.072-31.54 63.474-23.084 134.995C294.228 279.201 341 300.493 341 344.552c0 44.058-39.412 79.236-142.257 81.41C130.179 427.413 63.93 386.435 0 303.028V43.51z" transform="translate(0 -244) translate(0 244)"/>
                <path fill="#CBD8AA" d="M170.184 471.968c-5.11.108-10.203-.059-15.283-.501l28.34-.002c-4.213.24-8.564.408-13.057.503zm35.808-2.647l-66.232.002c-.87-.17-1.742-.35-2.612-.538l72.568.001c-1.226.186-2.467.365-3.724.535zm15.665-2.679h-93.183c-.627-.175-1.253-.354-1.878-.537h97.539c-.818.184-1.644.362-2.478.537zm11.066-2.68H119.852c-.512-.176-1.023-.354-1.534-.535h116.294c-.624.18-1.254.36-1.889.536zm8.66-2.68l-128.777-.001c-.444-.176-.888-.355-1.331-.535h131.634c-.505.18-1.013.36-1.526.536zm7.105-2.68H106.245c-.397-.176-.794-.355-1.19-.535l144.711-.002c-.422.18-.848.359-1.278.536zm5.992-2.68H100.503c-.363-.177-.725-.356-1.087-.536h156.155c-.36.18-.725.358-1.091.536zm5.146-2.68H95.236c-.335-.177-.67-.356-1.005-.536l166.34-.001c-.312.18-.627.359-.945.537zm4.472-2.681H90.343c-.313-.177-.625-.355-.937-.534l175.515-.001c-.272.179-.546.357-.823.535zm3.913-2.679l-182.25.001c-.295-.177-.59-.356-.885-.536l183.86-.001c-.239.18-.48.358-.725.536zm3.447-2.68l-190.026.002-.839-.536 191.504-.002c-.21.18-.424.358-.639.536zm3.045-2.68l-197.182.001c-.267-.178-.534-.357-.8-.537h198.546c-.186.18-.374.357-.564.535zm2.692-2.68H73.397l-.76-.534 205.057-.001c-.165.179-.331.357-.5.535zm2.382-2.68l-209.933.001-.732-.535 211.106-.002c-.146.18-.293.358-.441.536zm2.103-2.68l-215.641.003-.708-.538H282.07c-.128.178-.258.357-.389.535zm1.852-2.68l-220.97.002-.682-.537h221.995c-.113.179-.227.357-.343.535zm1.625-2.68l-225.951.003-.66-.538 226.91-.001c-.098.18-.198.358-.299.536zm1.416-2.68l-230.617.002-.637-.535 231.513-.002c-.085.179-.172.357-.26.536zm1.223-2.68l-234.99.002-.619-.535 235.831-.002c-.073.179-.147.357-.222.535zm1.043-2.679l-239.096-.001c-.2-.177-.4-.355-.598-.533l239.883-.002c-.062.18-.125.358-.189.536zm.878-2.68l-242.949.001-.586-.536h243.692c-.051.178-.104.357-.157.535zm.722-2.68l-246.57.002-.573-.538h247.27l-.127.536zm.575-2.68l-249.973.002-.557-.536 250.628-.002c-.031.179-.064.357-.098.536zm.437-2.68H38.279l-.543-.534 253.786-.002c-.023.179-.046.357-.071.536zm.306-2.68l-256.175.002-.534-.537h256.755l-.046.535zm.18-2.68H32.94l-.52-.534 259.54-.003-.022.537zm.063-2.788l-.001.108-261.64.003-.513-.538 262.152-.002.002.429zm-.063-2.573l-264.113.003-.499-.535 264.583-.004.03.536zm-.2-2.68l-266.395.004-.493-.538 266.831-.001c.02.178.039.357.057.536zm-.342-2.68l-268.492.002-.48-.534 268.887-.004c.03.179.058.357.085.537zm-.484-2.68l-270.399.004-.475-.537 270.76-.003.114.537zm-.627-2.68l-272.125.002-.464-.534 272.446-.002c.049.178.096.356.143.535zm-.77-2.678l-273.664.002-.457-.536 273.95-.003.172.537zm-.908-2.681l-275.03.002-.45-.537 275.282-.001c.067.178.133.357.198.536zm-1.043-2.68l-276.223.002-.441-.534 276.441-.002c.075.178.15.356.223.534zm-1.169-2.679l-277.253.004-.437-.537 277.442-.002c.084.178.166.356.248.535zm-1.287-2.68l-278.136.002-.431-.538h278.296l.271.536zm-1.394-2.68l-278.88.001-.421-.534 279.01-.003.291.537zm-1.488-2.68l-279.495.003-.418-.536 279.606-.002.307.536zm-1.568-2.68l-280.003.004-.413-.538 280.094-.001.322.536zm-1.632-2.68H0v-.535h278.692l.333.536zm-1.682-2.68H0v-.535h277.002c.114.178.228.357.34.536zm-1.715-2.68H0v-.535h275.282l.346.535zm-1.733-2.678H0v-.537h273.547l.348.537zm-1.738-2.68H0v-.537h271.81l.347.537zm-1.729-2.68H0v-.537l270.085.001.343.535zm-1.708-2.68H0v-.537h268.382l.338.537zm-1.677-2.68H0v-.536h266.712l.33.536zm-1.638-2.68H0v-.536h265.083l.322.537zm-1.591-2.68H0v-.536l263.503.001.31.535zm-1.538-2.68H0v-.536h261.975l.301.537zm-1.48-2.68H0v-.536l260.507.001.288.536zm-1.42-2.68H0v-.536l259.1.002.275.534zm-1.356-2.678L0 329.966v-.536l257.757.002c.087.18.175.358.263.536zm-1.291-2.68L0 327.286v-.536l256.479.002.25.536zm-1.225-2.68L0 324.607v-.536l255.267.002.237.537zm-1.158-2.68L0 321.927v-.536h254.122c.074.18.149.359.224.537zm-1.091-2.68L0 319.248v-.536l253.044.001.21.537zm-1.026-2.68L0 316.568v-.536l252.032.002.197.536zm-.96-2.68L0 313.887v-.536l251.085.002c.06.179.122.357.184.535zm-.896-2.68L0 311.207v-.536l250.202.003.17.534zm-.833-2.68H0v-.537l249.382.002c.052.18.105.358.158.536zm-.77-2.678L0 305.847v-.536l248.623.001c.048.18.098.36.147.538zm-.71-2.68L0 303.167v-.536l247.924.003.135.536zm-.653-2.683H0v-.535l247.284.002.123.533zm-.594-2.677L0 297.808v-.536h246.7l.113.538zm-.539-2.68L0 295.127v-.536l246.173.002.101.535zm-.484-2.681L0 292.448v-.536h245.7l.09.537zm-.432-2.679L0 289.768v-.536l245.278.004.08.534zm-.451-3.218l-.2-1.61c.086.722.176 1.438.27 2.148L0 287.088v-.536h244.907zm-.261-2.147L0 284.408v-.536l244.586-.003.06.536zm-.277-2.68L0 281.729v-.536h244.32l.049.534zm-.218-2.68L0 279.048v-.536l244.115-.003.036.536zm-.156-2.678L0 276.369v-.536l243.971-.002.024.536zm-.093-2.682L0 273.689v-.536l243.892-.003.01.535zm-.026-2.678L0 271.01v-.536l243.88-.004-.004.538zm.043-2.68L0 268.329v-.536l243.936-.002-.017.536zm.114-2.68L0 265.649v-.536h244.065l-.032.534zm.188-2.68L0 262.97v-.536l244.268-.002-.047.536zm.266-2.679L0 260.29v-.536l244.55-.002c-.022.178-.043.357-.063.537zm.344-2.68L0 257.61v-.536l244.91-.002-.08.538zm.426-2.678H0v-.536l245.352-.003-.095.539zm.51-2.68H0v-.536l245.88-.003c-.039.179-.076.358-.114.538zm.595-2.682L0 249.57v-.536l246.491-.003-.13.537zm.681-2.68L0 246.89v-.536l247.19-.002c-.05.178-.098.357-.147.536zm.769-2.68L0 244.21v-.536h247.975c-.055.177-.11.355-.163.533zm.854-2.679L0 241.53v-.536h248.847l-.18.535zm.94-2.679H0v-.536l249.804-.001-.199.537zm1.021-2.682L0 236.17v-.536h250.84l-.213.534zm1.097-2.677H0v-.537h251.953l-.229.537zm1.169-2.682L0 230.811v-.536h253.133l-.24.534zm1.227-2.679H0v-.535l254.372-.001-.252.536zm1.277-2.68H0v-.535l255.657-.002-.26.537zm1.31-2.68H0v-.535h256.972c-.089.177-.177.356-.265.535zm1.326-2.68L0 220.092v-.536h258.298l-.265.536zm1.323-2.679H0v-.536h259.618l-.262.536zm1.298-2.68H0v-.536h260.909l-.255.536zm1.251-2.68H0v-.536h262.148c-.08.179-.161.357-.243.536zm1.182-2.68H0v-.535h263.312l-.225.536zm1.09-2.68H0v-.535h264.382l-.205.536zm.98-2.68H0v-.535h265.337l-.18.536zm.852-2.68H0v-.535h266.163c-.05.179-.102.357-.154.536zm.711-2.679H0v-.536h266.845c-.04.18-.082.358-.125.536zm.561-2.679H0v-.537l267.375.001c-.03.18-.062.358-.094.536zm.404-2.68H0v-.537l267.747.002c-.02.179-.04.357-.062.535zm.244-2.679L0 190.612v-.536l267.958.001c-.008.18-.018.359-.03.537zm.083-2.68L0 187.931v-.536l268.01.002c.002.18.003.358.002.535zm-.075-2.68L0 185.253v-.536h267.903c.013.18.024.358.034.537zm-.23-2.682H0v-.535l267.643.001c.022.179.044.357.064.534zm-.38-2.677L0 179.893v-.536h267.234l.094.538zm-.523-2.68L0 177.213v-.536h266.682c.042.18.083.36.122.538zm-.66-2.68L0 174.532v-.536l265.996.002c.05.18.1.358.147.535zm-.792-2.682H0v-.536l265.18.003c.058.178.116.356.172.533zm-.914-2.68H0v-.536l264.24-.001.198.537zm-1.03-2.68H0v-.536l263.188-.001c.074.178.148.357.22.537zm-1.145-2.68H0v-.535l262.019-.002.244.536zm-1.27-2.681L0 161.134v-.536l260.723-.001.27.535zm-1.404-2.68L0 158.454v-.536l259.292-.001c.1.178.199.356.297.535zm-1.546-2.678H0v-.536l257.714-.002.329.538zm-1.703-2.682L0 153.094v-.536h255.98l.36.534zm-1.871-2.679L0 150.414v-.536h254.073c.133.177.265.356.396.535zm-2.056-2.68L0 147.734v-.536h251.979l.434.535zm-2.257-2.678H0v-.537l249.677-.001.48.538zm-2.483-2.682H3.067l.88-.535h243.201c.176.177.35.355.525.535zm-2.731-2.68l-237.392.001c.307-.18.614-.358.922-.536h235.892c.194.177.386.355.578.534zm-3.01-2.68l-229.68.001c.323-.18.646-.358.969-.535l228.074-.001c.213.177.425.355.636.534zm-3.328-2.68H17.206c.34-.18.682-.358 1.023-.535h219.668c.237.177.473.355.707.535zm-3.691-2.68l-212.468.001c.362-.18.725-.359 1.087-.536l210.593-.001c.264.178.527.357.788.536zm-4.115-2.679l-202.779.001c.387-.18.774-.359 1.162-.536H229.92c.294.178.587.356.878.535zm-4.617-2.678H33.995c.416-.18.833-.36 1.25-.537h189.94c.333.177.665.356.996.537zm-5.233-2.681H40.458c.453-.18.907-.36 1.36-.536h177.996c.38.176.758.355 1.134.536zm-5.998-2.68H47.53c.5-.18 1-.359 1.502-.536H213.64c.439.176.875.355 1.31.535zm-6.989-2.68H55.397c.565-.18 1.13-.36 1.696-.536h149.319c.52.176 1.036.355 1.55.536zm-8.371-2.68H64.374c.657-.182 1.314-.36 1.972-.536H197.7c.633.175 1.263.354 1.89.535zm-10.459-2.68H75.034c.808-.183 1.617-.362 2.428-.536l109.205-.001c.827.174 1.648.353 2.464.537zm-14.265-2.68H88.77c1.135-.187 2.271-.366 3.41-.536l79.005-.001c1.237.17 2.464.35 3.682.537zM128.776 107c6.794 0 13.402.176 19.811.534l-36.365.002c5.467-.357 10.985-.536 16.554-.536z" transform="translate(0 -244) translate(0 244)"/>
            </g>
        </g>
    </g>
</svg>
