<svg xmlns="http://www.w3.org/2000/svg" width="64" height="64" viewBox="0 0 64 64">
    <g fill="none" fill-rule="evenodd">
        <g>
            <g>
                <g>
                    <g>
                        <g>
                            <path fill="#2C2C2C" d="M29.143 42.869c-.634.617-1.652.617-2.286 0L14.954 31.2h-7.46L23.17 46.563c2.68 2.622 6.99 2.633 9.67 0l15.677-15.362h-7.46L29.142 42.869zM38.803 0c-3.993 0-7.767 1.333-10.798 3.78C24.975 1.334 21.201 0 17.208 0 9.43 0 0 6.164 0 16.9c0 4.041 1.499 7.812 4.135 10.834h12.778l3.27-7.768 6.225 13.683c.602 1.333 2.505 1.376 3.162.065l5.437-10.768 2.417 4.788h14.44C54.502 24.712 56 20.941 56 16.9 56.01 6.164 46.581 0 38.803 0zm9.178 24.267h-8.39l-3.02-5.98c-.645-1.278-2.483-1.278-3.129 0l-5.349 10.606-6.367-14.008c-.623-1.386-2.625-1.354-3.216.044l-3.927 9.338H8.03C1.597 16.738 7.264 5.2 17.208 5.2c3.391 0 5.58.672 10.797 5.785 5.59-5.47 7.56-5.785 10.798-5.785 9.977 0 15.61 11.538 9.178 19.067z" transform="translate(-192 -1232) translate(160 984) translate(0 216) translate(32 32) translate(4 9)"/>
                            <path fill="#1FAA39" d="M51.865 27.734h-14.44l-2.418-4.788-5.437 10.768c-.657 1.311-2.56 1.268-3.162-.065l-6.224-13.683-3.271 7.768H4.135l3.895-3.467h6.553l3.927-9.338c.59-1.398 2.593-1.43 3.216-.044l6.367 14.008 5.35-10.606c.645-1.278 2.483-1.278 3.128 0l3.02 5.98h8.39l3.884 3.467z" transform="translate(-192 -1232) translate(160 984) translate(0 216) translate(32 32) translate(4 9)"/>
                        </g>
                    </g>
                </g>
            </g>
        </g>
    </g>
</svg>
