<svg xmlns="http://www.w3.org/2000/svg" width="64" height="64" viewBox="0 0 64 64">
    <g fill="none" fill-rule="evenodd">
        <g>
            <g>
                <g>
                    <g>
                        <g>
                            <path fill="#2C2C2C" d="M32.61 1.314c-2.092-1.752-5.133-1.752-7.224 0L.577 21.788c-.328.276-.533.67-.57 1.098-.038.428.094.853.369 1.182l1.03 1.244c.572.685 1.587.775 2.27.202l2.766-2.28v5.895H6.41v21.038c.008.895.73 1.617 1.622 1.619h41.91c.89 0 1.611-.725 1.611-1.619V23.234l2.77 2.284c.682.573 1.697.483 2.268-.202l1.033-1.244c.275-.33.408-.756.37-1.185-.04-.429-.246-.824-.576-1.099L32.609 1.314zm14.11 21.342h-.021v24.275H11.244V19.67l.031-.026v-.405L28.998 4.617 46.72 19.244v3.412z" transform="translate(-576 -1232) translate(160 984) translate(384 216) translate(32 32) translate(3 6)"/>
                            <path fill="#1FAA39" d="M25.775 20.229v5.664h-5.639c-.445 0-.805.362-.805.809v4.855c0 .447.36.809.805.809h5.64v5.664c0 .447.36.81.805.81h4.833c.445 0 .806-.363.806-.81v-5.664h5.639c.445 0 .805-.362.805-.81v-4.854c0-.447-.36-.81-.805-.81h-5.64V20.23c0-.447-.36-.81-.805-.81h-4.833c-.445 0-.806.363-.806.81z" transform="translate(-576 -1232) translate(160 984) translate(384 216) translate(32 32) translate(3 6)"/>
                        </g>
                    </g>
                </g>
            </g>
        </g>
    </g>
</svg>
