<svg xmlns="http://www.w3.org/2000/svg" width="64" height="64" viewBox="0 0 64 64">
    <g fill="none" fill-rule="evenodd">
        <g>
            <g>
                <g>
                    <g>
                        <g>
                            <path fill="#2C2C2C" d="M38.316 29.75H32.42c-1.627 0-2.947 1.332-2.947 2.975v11.9c0 1.643 1.32 2.975 2.947 2.975h5.895c1.627 0 2.947-1.332 2.947-2.975v-11.9c0-1.643-1.32-2.975-2.947-2.975zm-1.474 13.388h-2.947v-8.925h2.947v8.925zm16.21-25.288h-5.894c-1.628 0-2.947 1.332-2.947 2.975v23.8c0 1.643 1.32 2.975 2.947 2.975h5.895C54.68 47.6 56 46.268 56 44.625v-23.8c0-1.643-1.32-2.975-2.947-2.975zM51.58 43.138h-2.947V22.313h2.947v20.825zm-28-25.288h-5.895c-1.627 0-2.947 1.332-2.947 2.975v23.8c0 1.643 1.32 2.975 2.947 2.975h5.895c1.627 0 2.947-1.332 2.947-2.975v-23.8c0-1.643-1.32-2.975-2.947-2.975zm-1.474 25.288h-2.947V22.313h2.947v20.825zM8.842 32.725H2.947C1.32 32.725 0 34.057 0 35.7v8.925C0 46.268 1.32 47.6 2.947 47.6h5.895c1.628 0 2.947-1.332 2.947-2.975V35.7c0-1.643-1.32-2.975-2.947-2.975zM7.368 43.138H4.421v-5.95h2.947v5.95z" transform="translate(-192 -1504) translate(160 984) translate(0 488) translate(32 32) translate(4 8)"/>
                            <path fill="#1FAA39" d="M5.895 23.8c2.441 0 4.42-1.998 4.42-4.463 0-.396-.067-.775-.163-1.141L19.5 8.76c.362.096.737.165 1.13.165.567 0 1.103-.117 1.601-.313l8.782 7.09c-.033.217-.066.435-.066.66 0 2.465 1.98 4.463 4.421 4.463 2.442 0 4.421-1.998 4.421-4.462 0-.226-.034-.443-.065-.66l8.781-7.09c.497.195 1.033.312 1.6.312 2.441 0 4.42-1.998 4.42-4.463 0-2.464-1.979-4.462-4.42-4.462-2.442 0-4.422 1.998-4.422 4.463 0 .225.034.442.066.659l-8.782 7.09c-.497-.196-1.034-.313-1.6-.313-.567 0-1.103.117-1.601.313l-8.78-7.09c.032-.216.066-.434.066-.66 0-2.464-1.98-4.462-4.421-4.462-2.442 0-4.421 1.998-4.421 4.463 0 .396.068.775.163 1.141L7.026 15.04c-.363-.096-.738-.165-1.131-.165-2.442 0-4.421 1.998-4.421 4.462 0 2.465 1.979 4.463 4.42 4.463z" transform="translate(-192 -1504) translate(160 984) translate(0 488) translate(32 32) translate(4 8)"/>
                        </g>
                    </g>
                </g>
            </g>
        </g>
    </g>
</svg>
