<svg xmlns="http://www.w3.org/2000/svg" width="64" height="64" viewBox="0 0 64 64">
    <g fill="none" fill-rule="evenodd">
        <g>
            <g>
                <g>
                    <g>
                        <g>
                            <path fill="#2C2C2C" d="M24.733 31.5c8.782 0 15.9-7.051 15.9-15.75S33.515 0 24.733 0c-8.781 0-15.9 7.051-15.9 15.75s7.119 15.75 15.9 15.75zm9.125-21h-7.36l4.392-3.263c1.214.864 2.213 1.98 2.968 3.263zm-9.125-5.25c.867 0 1.697.132 2.505.328L20.613 10.5h-5.005c1.839-3.123 5.22-5.25 9.125-5.25zM14.313 14h20.843c.098.572.178 1.15.178 1.75 0 5.79-4.754 10.5-10.6 10.5-5.844 0-10.6-4.71-10.6-10.5 0-.6.08-1.178.178-1.75zm20.314 19.25c-1.22 0-2.405.284-3.556.682C29.084 34.62 26.955 35 24.733 35c-2.22 0-4.35-.38-6.336-1.068-1.151-.398-2.338-.682-3.557-.682C6.644 33.25 0 39.831 0 47.95v2.8C0 53.65 2.373 56 5.3 56h38.867c2.927 0 5.3-2.35 5.3-5.25v-2.8c0-8.119-6.644-14.7-14.84-14.7zM8.833 50.75H5.3v-2.8c0-2.944 1.395-5.546 3.533-7.281V50.75zm3.534 0V38.863c.794-.213 1.613-.363 2.473-.363.462 0 1.052.127 1.809.388.16.056.33.074.492.126l5.266 11.736h-10.04zm18.89 0h-4.982L23.92 45.5h4.347c1.95 0 3.533 1.57 3.533 3.5 0 .65-.229 1.227-.543 1.75zm12.91 0h-9.084c.148-.562.25-1.142.25-1.75 0-3.86-3.17-7-7.066-7h-5.919l-.908-2.026c1.09.148 2.186.276 3.293.276 2.753 0 5.473-.458 8.085-1.362.756-.261 1.348-.388 1.809-.388 5.26 0 9.54 4.24 9.54 9.45v2.8z" transform="translate(-960 -1232) translate(160 984) translate(768 216) translate(32 32) translate(8 4)"/>
                            <path fill="#1FAA39" d="M27.245 5.561c1.318.331 2.545.914 3.626 1.691L26.499 10.5h7.36c-.056-.093-.112-.185-.169-.276.731 1.14 1.248 2.418 1.49 3.776H14.29c.236-1.329.735-2.582 1.441-3.704l-.123.204h5.005z" transform="translate(-960 -1232) translate(160 984) translate(768 216) translate(32 32) translate(8 4)"/>
                        </g>
                    </g>
                </g>
            </g>
        </g>
    </g>
</svg>
