<svg xmlns="http://www.w3.org/2000/svg" width="64" height="64" viewBox="0 0 64 64">
    <g fill="none" fill-rule="evenodd">
        <g>
            <g>
                <g>
                    <g>
                        <g>
                            <path fill="#2C2C2C" d="M52 26c0-3.707-1.91-6.947-4.743-8.805.69-3.342-.274-6.978-2.874-9.578-2.6-2.61-6.246-3.565-9.578-2.874C32.927 1.899 29.687 0 26 0c-3.687 0-6.937 1.9-8.805 4.743-3.342-.69-6.978.274-9.578 2.874-2.61 2.6-3.565 6.246-2.874 9.578C1.889 19.073 0 22.323 0 26c0 3.687 1.9 6.937 4.743 8.805-.69 3.342.274 6.978 2.874 9.578 2.6 2.61 6.216 3.565 9.578 2.874C19.073 50.111 22.323 52 26 52c3.697 0 6.937-1.91 8.805-4.743 3.362.69 6.978-.274 9.578-2.874 2.61-2.6 3.565-6.246 2.874-9.578C50.111 32.927 52 29.677 52 26zm-11 6.226c.925 2.02 3.078 5.565-.07 8.714-2.844 2.844-5.617 1.473-8.714.07-.782 2.093-1.757 6.115-6.216 6.115-4.6 0-5.555-4.347-6.216-6.114-2.143.975-5.575 3.067-8.724-.081-3.25-3.25-.853-6.998-.07-8.714-2.093-.782-6.115-1.757-6.115-6.216 0-4.6 4.347-5.555 6.124-6.226-.924-2.02-3.077-5.565.071-8.714 3.25-3.25 6.998-.853 8.714-.07.782-2.093 1.757-6.115 6.216-6.115 4.6 0 5.555 4.347 6.216 6.134 2.02-.924 5.565-3.077 8.714.071 3.25 3.25.853 6.998.07 8.715 2.093.782 6.115 1.757 6.115 6.215 0 4.6-4.347 5.556-6.114 6.216z" transform="translate(-576 -1504) translate(160 984) translate(384 488) translate(32 32) translate(6 6)"/>
                            <path fill="#1FAA39" d="M24.003 22.894c-.367-.106-.62-.441-.621-.823 0-.472.384-.856.857-.856h3.33c.365 0 .718.079 1.041.226.488.224 1.053.174 1.433-.206l1.78-1.78c.535-.535.474-1.45-.158-1.866-.965-.637-2.067-1.027-3.227-1.164v-1.8c0-.898-.728-1.625-1.625-1.625h-1.625c-.898 0-1.625.727-1.625 1.625v1.783c-3.077.368-5.42 3.147-5.01 6.404.295 2.33 2.099 4.195 4.358 4.841l5.086 1.453c.367.106.62.441.621.823 0 .472-.384.856-.857.856h-3.33c-.365 0-.718-.079-1.041-.226-.488-.224-1.053-.174-1.433.206l-1.78 1.78c-.535.535-.474 1.45.158 1.866.965.637 2.067 1.027 3.227 1.164v1.8c0 .898.728 1.625 1.625 1.625h1.625c.898 0 1.625-.727 1.625-1.625v-1.783c3.077-.368 5.42-3.147 5.01-6.404-.295-2.33-2.099-4.195-4.358-4.841l-5.086-1.453z" transform="translate(-576 -1504) translate(160 984) translate(384 488) translate(32 32) translate(6 6)"/>
                        </g>
                    </g>
                </g>
            </g>
        </g>
    </g>
</svg>
