<svg xmlns="http://www.w3.org/2000/svg" width="24" height="24" viewBox="0 0 24 24">
    <g fill="none" fill-rule="evenodd">
        <g fill="">
            <g>
                <path d="M1 4.536v14.928c0 1.125.923 2.036 2.063 2.036h17.875c1.139 0 2.062-.911 2.062-2.036V4.536C23 3.41 22.077 2.5 20.937 2.5H3.063C1.923 2.5 1 3.411 1 4.536zm9.969 0v6.446H3.063V4.79c0-.14.115-.254.257-.254h7.649zm-7.906 8.482h7.906v6.446H3.32c-.142 0-.257-.114-.257-.254v-6.192zm9.968 6.446v-6.446h7.906v6.192c0 .14-.115.254-.257.254H13.03zm7.906-8.482h-7.906V4.536h7.649c.142 0 .258.114.258.254v6.192z" transform="translate(-1256 -252) translate(1256 252)"/>
            </g>
        </g>
    </g>
</svg>
